<svg xmlns="http://www.w3.org/2000/svg" xmlns:xlink="http://www.w3.org/1999/xlink" width="20" height="20" viewBox="0 0 20 20">
  <defs>
    <clipPath id="clip-path">
      <rect id="Rectangle_76" data-name="Rectangle 76" width="20" height="20" transform="translate(14 14)"/>
    </clipPath>
  </defs>
  <g id="Ico_Like" transform="translate(-14 -14)" clip-path="url(#clip-path)">
    <path id="thumbs-up" d="M18.974,6.433A4.161,4.161,0,0,0,15.83,5H12.507l.28-1.7A2.53,2.53,0,0,0,8.02,1.768L6.426,5H4.166A4.171,4.171,0,0,0,0,9.165v4.166A4.171,4.171,0,0,0,4.166,17.5H15.247a4.186,4.186,0,0,0,4.125-3.583l.587-4.166a4.166,4.166,0,0,0-.986-3.315Zm-17.308,6.9V9.165a2.5,2.5,0,0,1,2.5-2.5H5.832V15.83H4.166A2.5,2.5,0,0,1,1.666,13.331Zm16.64-3.817-.588,4.166a2.51,2.51,0,0,1-2.47,2.15H7.5V6.444A.833.833,0,0,0,7.69,6.2l1.824-3.7a.892.892,0,0,1,1.435-.172.853.853,0,0,1,.194.7L10.7,5.7a.833.833,0,0,0,.822.966H15.83a2.5,2.5,0,0,1,2.475,2.849Z" transform="translate(14 15.074)"/>
  </g>
</svg>
