<svg xmlns="http://www.w3.org/2000/svg" xmlns:xlink="http://www.w3.org/1999/xlink" width="20" height="20" viewBox="0 0 20 20">
  <defs>
    <clipPath id="clip-path">
      <rect id="Rectangle_76" data-name="Rectangle 76" width="20" height="20" transform="translate(14 14)"/>
    </clipPath>
  </defs>
  <g id="Ico_Dislike" transform="translate(-14 -14)" clip-path="url(#clip-path)">
    <path id="thumbs-down" d="M19.959,10.25l-.587-4.167A4.187,4.187,0,0,0,15.25,2.5H4.167A4.172,4.172,0,0,0,0,6.667v4.167A4.172,4.172,0,0,0,4.167,15h2.26l1.595,3.232A2.531,2.531,0,0,0,12.789,16.7l-.28-1.7h3.324a4.167,4.167,0,0,0,4.126-4.75ZM4.167,4.167H5.833v9.167H4.167a2.5,2.5,0,0,1-2.5-2.5V6.667a2.5,2.5,0,0,1,2.5-2.5ZM17.72,12.473a2.5,2.5,0,0,1-1.887.86H11.527a.833.833,0,0,0-.822.968l.44,2.667a.853.853,0,0,1-.194.7.892.892,0,0,1-1.435-.177L7.692,13.8a.833.833,0,0,0-.192-.243V4.167h7.75a2.51,2.51,0,0,1,2.475,2.151l.588,4.167a2.5,2.5,0,0,1-.593,1.989Z" transform="translate(14 12.928)"/>
  </g>
</svg>
