<svg xmlns="http://www.w3.org/2000/svg" width="32" height="32" viewBox="0 0 32 32">
    <defs>
        <clipPath id="haqn1uv7fa">
            <path data-name="Rectangle 216" transform="translate(20 148)" d="M0 0h32v32H0z"/>
        </clipPath>
    </defs>
    <g data-name="Information" transform="translate(-20 -148)" style="clip-path:url(#haqn1uv7fa)">
        <path data-name="Path 4123" d="M36.426 165.778h-.853a1.472 1.472 0 0 0-1.473 1.471v.687a1.472 1.472 0 0 0 1.471 1.471h.853a1.472 1.472 0 0 0 1.476-1.472v-.687a1.472 1.472 0 0 0-1.474-1.47zm.533 2.158a.534.534 0 0 1-.533.533h-.853a.534.534 0 0 1-.533-.533v-.687a.534.534 0 0 1 .533-.533h.853a.534.534 0 0 1 .533.533z"/>
        <path data-name="Path 4124" d="M37.451 156.9a.469.469 0 1 0 .936.053l.045-.8a2.436 2.436 0 1 0-4.863 0l.381 6.777a1.786 1.786 0 0 0 1.782 1.684h.537a1.786 1.786 0 0 0 1.782-1.684l.231-4.1a.469.469 0 0 0-.936-.053l-.231 4.1a.847.847 0 0 1-.846.8h-.537a.847.847 0 0 1-.846-.8L34.5 156.1a1.5 1.5 0 1 1 2.991 0z"/>
        <path data-name="Path 4125" d="M45.909 152.084A13.967 13.967 0 0 0 36 148h-.1a13.87 13.87 0 0 0-5.72 1.269 14.092 14.092 0 0 0-4.58 3.353.469.469 0 1 0 .694.63 13.158 13.158 0 0 1 4.275-3.132 12.937 12.937 0 0 1 5.331-1.182h.1a13.129 13.129 0 0 1 11.306 19.8 13.2 13.2 0 0 1-4.776 4.717.469.469 0 1 0 .467.813 14.057 14.057 0 0 0 7.065-12.2 13.967 13.967 0 0 0-4.155-9.98z"/>
        <path data-name="Path 4126" d="M40.9 174.245a13.1 13.1 0 0 1-1.292.443 2.5 2.5 0 0 0-1.492 1.157l-1.726 2.994a.447.447 0 0 1-.774 0l-1.726-2.994a2.5 2.5 0 0 0-1.492-1.158 13.224 13.224 0 0 1-6.792-4.607 13.087 13.087 0 0 1-.444-15.395.469.469 0 1 0-.774-.529 14.024 14.024 0 0 0 .475 16.5 14.168 14.168 0 0 0 7.274 4.936 1.569 1.569 0 0 1 .937.724l1.726 2.991a1.384 1.384 0 0 0 2.4 0l1.726-2.994a1.567 1.567 0 0 1 .936-.724 14.015 14.015 0 0 0 1.385-.475.469.469 0 1 0-.35-.87z"/>
    </g>
</svg>
