<svg xmlns="http://www.w3.org/2000/svg" width="32" height="32" viewBox="0 0 32 32">
    <defs>
        <clipPath id="opsvhnpmua">
            <path data-name="Rectangle 216" transform="translate(20 148)" d="M0 0h32v32H0z"/>
        </clipPath>
    </defs>
    <g data-name="Password" transform="translate(-20 -148)" style="clip-path:url(#opsvhnpmua)">
        <path data-name="Path 4127" d="M50.8 157.922a.469.469 0 0 0-.867.356 15.065 15.065 0 0 1-24.584 16.373 15.062 15.062 0 1 1 21.787-20.793l-2.683-.766a.469.469 0 1 0-.258.9l4.323 1.235a.469.469 0 0 0 .579-.579l-1.234-4.322a.469.469 0 0 0-.9.258l.7 2.467a16 16 0 1 0-22.977 22.263A16 16 0 0 0 50.8 157.922z"/>
        <path data-name="Path 4128" d="M38.473 158.489a2.478 2.478 0 0 0-.078-.618.469.469 0 0 0-.908.234 1.533 1.533 0 1 1-1.1-1.1.469.469 0 1 0 .234-.908 2.473 2.473 0 1 0 1.855 2.395z"/>
        <path data-name="Path 4129" d="M37.818 162.576a4.478 4.478 0 1 0-3.636 0 .548.548 0 0 1 .347.493v9.95a.971.971 0 0 0 .97.97h1a.971.971 0 0 0 .97-.97v-.533h1.034a.971.971 0 0 0 .97-.97v-1a.971.971 0 0 0-.97-.97h-1.032v-1.069H38a.469.469 0 0 0 0-.937h-.533v-4.472a.547.547 0 0 1 .347-.492zm-1.285 10.442a.032.032 0 0 1-.032.032h-1a.032.032 0 0 1-.032-.032v-9.95a1.493 1.493 0 0 0-.9-1.349 3.554 3.554 0 0 1-2.044-3.882 3.509 3.509 0 0 1 2.758-2.817 3.7 3.7 0 0 1 .708-.069 3.536 3.536 0 0 1 1.446 6.768 1.492 1.492 0 0 0-.9 1.348v9.95zm1.972-2.537a.032.032 0 0 1 .032.032v1a.032.032 0 0 1-.032.032h-1.034v-1.064z"/>
    </g>
</svg>
