<svg xmlns="http://www.w3.org/2000/svg" width="50" height="50" viewBox="0 0 50 50">
    <defs>
        <clipPath id="z3dj2zgypa">
            <path data-name="Rectangle 17" transform="translate(181 980)" style="stroke:#707070;fill:#ff4d70" d="M0 0h50v50H0z"/>
        </clipPath>
    </defs>
    <g transform="translate(-181 -980)" style="clip-path:url(#z3dj2zgypa)">
        <path data-name="Path 18" d="M30.2 32.329a10.273 10.273 0 0 0-6.343-2.986v-6.81a5.59 5.59 0 0 0-1.357-4.241 6.738 6.738 0 0 0-4.2-1.5 13.365 13.365 0 0 0-1.255-4.27A12.537 12.537 0 0 1 15.8 8.055a.974.974 0 0 0 .3-.7V.977A.977.977 0 0 0 15.116 0h-6.38a.977.977 0 0 0-.976.977v6.379a.974.974 0 0 0 .3.7 12.544 12.544 0 0 1-1.25 4.462 13.355 13.355 0 0 0-1.255 4.27 6.739 6.739 0 0 0-4.2 1.5A5.59 5.59 0 0 0 0 22.533v20.779a2.8 2.8 0 0 0 2.8 2.8h11.99a10.526 10.526 0 0 0 .767.856A10.351 10.351 0 1 0 30.2 32.329zm-20.2-24h3.864a12.463 12.463 0 0 0 .768 3.43 23.041 23.041 0 0 1-3.079-.158c-.772-.073-1.522-.143-2.21-.156A12.259 12.259 0 0 0 10 8.33zm-.287-6.376h4.427v4.426H9.713zM2.8 44.158a.847.847 0 0 1-.846-.846V42.2h1.914a.977.977 0 0 0 0-1.953H1.953V23.51h10.181a.977.977 0 0 0 0-1.953H1.995a2.808 2.808 0 0 1 .713-1.857c.626-.6 1.844-.926 3.833-1.027a.977.977 0 0 0 .927-.975 10.1 10.1 0 0 1 1.08-4.279 17.248 17.248 0 0 1 2.816.127c.934.088 1.885.178 2.789.178a10.019 10.019 0 0 0 1.251-.072 9.668 9.668 0 0 1 .981 4.045.976.976 0 0 0 .927.975c1.989.1 3.207.428 3.833 1.027a2.806 2.806 0 0 1 .713 1.854h-1.912a.977.977 0 0 0 0 1.953H21.9v5.833a10.248 10.248 0 0 0-5.435 2.178c-.182-3.4-2.109-5.987-4.538-5.987-2.553 0-4.554 2.861-4.554 6.513s2 6.513 4.554 6.513a3.275 3.275 0 0 0 .663-.069 10.593 10.593 0 0 0-.064 1.158c0 .2.006.4.018.6h-.862a.977.977 0 0 0 0 1.953h1.161a10.194 10.194 0 0 0 .712 1.954zm11.507-10.321A10.219 10.219 0 0 0 13.184 36a1.822 1.822 0 0 1-1.258.607c-1.385 0-2.6-2.131-2.6-4.56s1.215-4.56 2.6-4.56 2.6 2.131 2.6 4.56a7.24 7.24 0 0 1-.219 1.79zm14.507 11.75a8.4 8.4 0 0 1-13.866-8.72.989.989 0 0 0 .024-.071 8.414 8.414 0 0 1 7.9-5.545 8.4 8.4 0 0 1 5.937 14.337zm0 0" style="fill:#ff4d70" transform="translate(189.386 980)"/>
        <path data-name="Path 19" d="M26.069 34.478a.978.978 0 0 0-.562-.714 6.448 6.448 0 0 0-8.517 8.516.978.978 0 0 0 .714.562.992.992 0 0 0 .177.016.976.976 0 0 0 .69-.286l7.229-7.227a.977.977 0 0 0 .269-.867zM18.4 39.985a4.7 4.7 0 0 1-.012-.337 4.491 4.491 0 0 1 4.492-4.492q.169 0 .337.012zm0 0" style="fill:#ff4d70" transform="translate(189.386 980)"/>
        <path data-name="Path 20" d="M28.762 37.017a.976.976 0 0 0-1.582-.291l-7.226 7.226a.976.976 0 0 0 .291 1.582 6.448 6.448 0 0 0 8.517-8.516zm-2.709 5.807a4.463 4.463 0 0 1-3.176 1.316c-.113 0-.225 0-.337-.012l4.817-4.817a4.7 4.7 0 0 1 .012.337 4.462 4.462 0 0 1-1.315 3.176zm0 0" style="fill:#ff4d70" transform="translate(189.386 980)"/>
        <path data-name="Path 21" d="M7.775 40.252a.977.977 0 1 0 .977.977.976.976 0 0 0-.977-.977zm0 0" style="fill:#ff4d70" transform="translate(189.386 980)"/>
        <path data-name="Path 22" d="M16.04 23.51a.977.977 0 1 0 0-1.953.977.977 0 0 0 0 1.953zm0 0" style="fill:#ff4d70" transform="translate(189.386 980)"/>
    </g>
</svg>
