<svg xmlns="http://www.w3.org/2000/svg" xmlns:xlink="http://www.w3.org/1999/xlink" width="20" height="20" viewBox="0 0 20 20">
  <g id="Ico_Plus">
    <path id="plus-circle" d="M15.484,10.081v.484a.485.485,0,0,1-.484.484H11.048V15a.485.485,0,0,1-.484.484h-.484A.485.485,0,0,1,9.6,15V11.048H5.645a.485.485,0,0,1-.484-.484v-.484A.485.485,0,0,1,5.645,9.6H9.6V5.645a.485.485,0,0,1,.484-.484h.484a.485.485,0,0,1,.484.484V9.6H15A.485.485,0,0,1,15.484,10.081Zm4.839.242a10,10,0,1,1-10-10A10,10,0,0,1,20.323,10.323Zm-1.29,0a8.71,8.71,0,1,0-8.71,8.71A8.709,8.709,0,0,0,19.032,10.323Z" transform="translate(-0.323 -0.323)" fill="#fff"/>
  </g>
</svg>
