<svg xmlns="http://www.w3.org/2000/svg" xmlns:xlink="http://www.w3.org/1999/xlink" width="24" height="24" viewBox="0 0 24 24">
  <defs>
    <clipPath id="clip-path">
      <rect id="Rectangle_105" data-name="Rectangle 105" width="24" height="24" transform="translate(1321 4185)"/>
    </clipPath>
  </defs>
  <g id="Ico_Thumbs_Up" data-name="Ico_Thumbs Up" transform="translate(-1321 -4185)" clip-path="url(#clip-path)">
    <path id="thumbs-up" d="M23.281,13.391A3.761,3.761,0,0,0,24,11.038a3.464,3.464,0,0,0-3.409-3.4H17.3a6.817,6.817,0,0,0,.97-3.273C18.273,1.625,17.181,0,14.386,0c-1.406,0-1.928,1.777-2.2,3.151a3.989,3.989,0,0,1-.775,2.06C10.312,6.316,8.625,9,7.612,9.545a1.924,1.924,0,0,1-.376.1A1.5,1.5,0,0,0,6,9H1.5A1.5,1.5,0,0,0,0,10.5v12A1.5,1.5,0,0,0,1.5,24H6a1.5,1.5,0,0,0,1.5-1.5v-.41c1.523,0,4.72,1.91,8.318,1.909.258,0,1.765,0,1.922,0,2.779,0,4.324-1.682,4.234-4.209a3.892,3.892,0,0,0,.854-3.146A4.382,4.382,0,0,0,23.281,13.391ZM1.5,22.5v-12H6v12Zm19.876-9.546c.749.546.749,2.8-.263,3.312a2.241,2.241,0,0,1-.7,2.906c.389,2.463-.889,3.31-2.682,3.327-.155,0-1.746,0-1.909,0C12.4,22.5,9.5,20.59,7.5,20.59V11.045c1.768,0,3.389-3.185,4.977-4.773,1.432-1.432.955-3.818,1.909-4.773,2.386,0,2.386,1.665,2.386,2.864,0,1.978-1.432,2.864-1.432,4.773h5.25A1.972,1.972,0,0,1,22.5,11.045a1.771,1.771,0,0,1-1.124,1.909Zm-16.5,7.3A1.125,1.125,0,1,1,3.75,19.125,1.125,1.125,0,0,1,4.875,20.25Z" transform="translate(1321 4185)"/>
  </g>
</svg>
