<svg width="20" height="20" viewBox="0 0 20 20" fill="none" xmlns="http://www.w3.org/2000/svg">
<g clip-path="url(#clip0_1_2)">
<path d="M19.269 8.25L16.043 4.987C15.9656 4.9089 15.8734 4.84692 15.7719 4.80461C15.6704 4.76231 15.5615 4.74053 15.4515 4.74053C15.3415 4.74053 15.2326 4.76231 15.1311 4.80461C15.0296 4.84692 14.9374 4.9089 14.86 4.987C14.7047 5.14309 14.6175 5.35432 14.6175 5.5745C14.6175 5.79468 14.7047 6.00591 14.86 6.162L17.827 9.15H0.832998C0.72327 9.15 0.614622 9.17168 0.513296 9.21379C0.41197 9.2559 0.319963 9.31762 0.242559 9.39539C0.165156 9.47317 0.10388 9.56547 0.062254 9.667C0.0206278 9.76852 -0.000528815 9.87727 -1.90735e-06 9.987C-1.90735e-06 10.2079 0.0877607 10.4198 0.243979 10.576C0.400196 10.7322 0.612073 10.82 0.832998 10.82H17.877L14.86 13.829C14.7819 13.9064 14.7199 13.9986 14.6776 14.1001C14.6353 14.2016 14.6135 14.3105 14.6135 14.4205C14.6135 14.5305 14.6353 14.6394 14.6776 14.7409C14.7199 14.8424 14.7819 14.9346 14.86 15.012C14.9374 15.0901 15.0296 15.1521 15.1311 15.1944C15.2326 15.2367 15.3415 15.2585 15.4515 15.2585C15.5615 15.2585 15.6704 15.2367 15.7719 15.1944C15.8734 15.1521 15.9656 15.0901 16.043 15.012L19.269 11.779C19.7358 11.3104 19.998 10.6759 19.998 10.0145C19.998 9.35306 19.7358 8.71857 19.269 8.25V8.25Z" fill="black"/>
</g>
<defs>
<clipPath id="clip0_1_2">
<rect width="20" height="20" fill="white" transform="matrix(-1 0 0 1 20 0)"/>
</clipPath>
</defs>
</svg>
