<svg xmlns="http://www.w3.org/2000/svg" width="20" height="20" viewBox="0 0 20 20">

    <g>
        <path d="M11.667 20a.833.833 0 0 1-.5-.167l-3.333-2.5a.833.833 0 0 1-.333-.667v-4.683L1.653 5.406A3.25 3.25 0 0 1 4.083 0h11.834a3.25 3.25 0 0 1 2.427 5.407L12.5 11.983v7.183a.833.833 0 0 1-.833.834zm-2.5-3.75 1.667 1.25v-5.833a.833.833 0 0 1 .211-.553L17.1 4.3a1.583 1.583 0 0 0-1.184-2.632H4.083A1.583 1.583 0 0 0 2.9 4.3l6.057 6.815a.833.833 0 0 1 .21.553z" transform="translate(.001)" style="fill:#fff"/>
    </g>
</svg>
