<svg width="60" height="60" viewBox="0 0 60 60" fill="none" xmlns="http://www.w3.org/2000/svg">
<path d="M8.93545 38.4727L11.4744 34.3657C11.4831 34.3504 11.4875 34.333 11.4873 34.3154C11.487 34.2978 11.4821 34.2806 11.4731 34.2654C11.4641 34.2503 11.4512 34.2378 11.4358 34.2293C11.4204 34.2207 11.4031 34.2164 11.3855 34.2167C4.75146 34.5007 1.96148 31.2827 1.35348 30.4577C1.34177 30.4426 1.32596 30.4311 1.30794 30.4247C1.28993 30.4183 1.27042 30.4172 1.25179 30.4215C1.23316 30.4258 1.2162 30.4354 1.20284 30.4491C1.18948 30.4628 1.18034 30.48 1.17647 30.4987C-0.0625268 36.9387 5.55343 38.6147 7.70943 39.0157C7.94472 39.0597 8.18783 39.0314 8.4067 38.9345C8.62557 38.8376 8.80994 38.6765 8.93545 38.4727V38.4727Z" fill="#FF339A"/>
<path d="M29.2486 39.6328C27.9276 41.8458 21.6676 50.4668 7.43561 44.5708C7.41321 44.561 7.38869 44.557 7.36432 44.559C7.33995 44.561 7.31648 44.5691 7.29602 44.5825C7.27557 44.5959 7.2588 44.6142 7.2472 44.6358C7.2356 44.6573 7.2295 44.6814 7.22956 44.7058V51.6419C7.22669 52.0334 7.31872 52.4199 7.49775 52.7682C7.67677 53.1165 7.93747 53.4163 8.25757 53.6419C9.54957 54.5419 12.2646 55.6629 17.5276 55.2139C25.9016 54.4969 29.5276 48.1378 29.5276 46.7048V39.7128C29.5312 39.6782 29.5223 39.6433 29.5026 39.6146C29.4828 39.5859 29.4535 39.565 29.4199 39.5559C29.3862 39.5468 29.3504 39.5499 29.3189 39.5647C29.2873 39.5796 29.262 39.6051 29.2476 39.6368L29.2486 39.6328Z" fill="#FF339A"/>
<path d="M15.0417 21.7527L18.3757 21.9297C18.4038 21.9308 18.4318 21.9259 18.4578 21.9155C18.4839 21.905 18.5075 21.8891 18.527 21.8689C18.5465 21.8488 18.5616 21.8247 18.5712 21.7983C18.5808 21.7719 18.5847 21.7438 18.5827 21.7157L18.2007 17.1847C18.1959 17.1449 18.1792 17.1075 18.1528 17.0772C18.1264 17.047 18.0915 17.0254 18.0527 17.0153C18.0139 17.0051 17.9729 17.0069 17.9351 17.0204C17.8973 17.0338 17.8644 17.0584 17.8407 17.0907L14.8877 21.4417C14.8684 21.471 14.857 21.5048 14.8549 21.5398C14.8527 21.5748 14.8598 21.6097 14.8754 21.6411C14.891 21.6725 14.9145 21.6993 14.9437 21.7187C14.9729 21.7381 15.0067 21.7495 15.0417 21.7517V21.7527Z" fill="#FF339A"/>
<path d="M52.2446 29.9158C51.7475 31.3436 50.9568 32.6514 49.9234 33.755C48.89 34.8585 47.6368 35.7332 46.2446 36.3227C45.0736 36.7881 43.8246 37.0257 42.5646 37.0228C40.0936 36.9669 37.6925 36.1923 35.6546 34.7937C33.5676 33.4036 31.7695 31.6225 30.3596 29.5488C30.3515 29.5336 30.338 29.522 30.3217 29.5164C30.3055 29.5108 30.2877 29.5116 30.272 29.5185C30.2563 29.5255 30.2438 29.5382 30.2371 29.554C30.2303 29.5698 30.2298 29.5876 30.2356 29.6037C30.9062 32.1745 30.8131 34.8851 29.9676 37.4038C29.9233 37.5411 29.921 37.6885 29.9611 37.8272C30.0012 37.9658 30.0818 38.0893 30.1926 38.1817C33.6211 41.1776 37.9918 42.8761 42.5436 42.9817C44.5644 42.9834 46.5669 42.5992 48.4436 41.8497L48.4856 41.8338C49.6402 41.3571 50.6264 40.5469 51.3181 39.5068C52.0098 38.4667 52.3756 37.2438 52.3686 35.9947V29.9257C52.3662 29.912 52.3595 29.8994 52.3496 29.8897C52.3397 29.8799 52.327 29.8735 52.3132 29.8713C52.2995 29.8691 52.2854 29.8712 52.2729 29.8774C52.2604 29.8836 52.2502 29.8935 52.2436 29.9057L52.2446 29.9158Z" fill="#FF339A"/>
<path d="M39.5866 23.4509C39.8169 23.6285 40.0846 23.7512 40.3696 23.8096C40.6545 23.868 40.949 23.8606 41.2306 23.7879C42.2216 23.3879 42.7076 21.3799 41.8706 19.2879C41.1446 17.4689 39.7436 16.3799 38.7356 16.3799C38.5883 16.3795 38.4422 16.4063 38.3046 16.4589C37.3136 16.8589 36.8336 18.8669 37.6676 20.9649C38.0451 21.9663 38.7134 22.8321 39.5866 23.4509V23.4509Z" fill="#FF339A"/>
<path d="M21.0085 22.3085C23.6332 22.737 26.0704 23.9386 28.0085 25.7596C28.0236 25.7822 28.0471 25.798 28.0738 25.8033C28.1006 25.8087 28.1284 25.8031 28.151 25.788C28.1737 25.7729 28.1895 25.7494 28.1948 25.7227C28.2002 25.696 28.1946 25.6682 28.1795 25.6455C28.0665 25.3915 27.9605 25.1356 27.8565 24.8756C26.5937 21.7848 26.0434 18.4492 26.2465 15.1166C26.2557 15.0915 26.2545 15.0638 26.2432 15.0396C26.232 15.0154 26.2116 14.9967 26.1865 14.9876C26.1614 14.9784 26.1338 14.9796 26.1096 14.9908C26.0854 15.0021 26.0667 15.0225 26.0575 15.0476L20.9505 22.1476C20.9392 22.1609 20.9315 22.177 20.9284 22.1942C20.9252 22.2115 20.9267 22.2293 20.9325 22.2458C20.9384 22.2623 20.9486 22.2769 20.9619 22.2883C20.9752 22.2997 20.9913 22.3074 21.0085 22.3106V22.3085Z" fill="#FF339A"/>
<path d="M13.0948 23.9619C10.5418 24.6329 11.7068 22.5999 11.7068 22.5999L17.1398 14.8999C2.28882 10.4999 -1.06016 27.2509 3.76384 30.2289C8.58784 33.2069 13.9958 31.6839 14.6218 32.1539C15.2478 32.6239 14.6218 33.7639 14.6218 33.7639L8.3048 42.7639C27.1538 49.5259 30.9159 34.5709 28.0499 28.8389C25.1839 23.1069 15.6478 23.2859 13.0948 23.9619Z" fill="white"/>
<path d="M52.4076 22.3299C52.1322 22.2056 51.8928 22.0137 51.7115 21.7721C51.5302 21.5305 51.4129 21.247 51.3706 20.9479C51.1239 19.2592 50.6782 17.6057 50.0426 16.0219C46.8356 7.98587 39.6425 3.30688 33.9685 5.56988C30.7945 6.83688 28.7686 10.0109 28.1686 13.9699C27.7209 17.2999 28.1287 20.6891 29.3536 23.8179V23.8179C29.4046 23.9419 29.4535 24.0819 29.5055 24.2109C32.7135 32.2479 39.9055 36.9269 45.5805 34.6659C46.7948 34.1368 47.881 33.3526 48.7654 32.3664C49.6497 31.3803 50.3114 30.2154 50.7055 28.9509C50.8344 28.6022 51.069 28.3025 51.3764 28.0937C51.6839 27.8848 52.049 27.7772 52.4206 27.7859C54.8356 27.8139 57.4586 26.7859 59.4726 23.2479C57.0819 23.7593 54.5882 23.4353 52.4076 22.3299V22.3299ZM41.9026 25.4369C39.8316 26.2639 37.2026 24.5539 36.0306 21.6189C34.8586 18.6839 35.5896 15.6329 37.6606 14.8069C39.7316 13.9809 42.3605 15.6899 43.5315 18.6249C44.7025 21.5599 43.9675 24.6099 41.8965 25.4369H41.9026Z" fill="white"/>
</svg>
