<svg width="181" height="32" viewBox="0 0 181 32" fill="none" xmlns="http://www.w3.org/2000/svg">
<g clip-path="url(#clip0_671_390)">
<path d="M18.3054 8.82424C17.4297 7.27273 14.9 5.91515 12.0784 5.91515C8.28378 5.81818 6.53243 7.3697 6.53243 9.40606C6.53243 11.7333 9.25676 12.3152 12.3703 12.703C17.9162 13.3818 22.9757 14.8364 22.9757 21.1394C22.9757 27.0545 17.8189 29.5758 11.8838 29.5758C6.62973 29.4788 2.44595 27.8303 0.5 22.9818L4.68378 20.8485C5.85135 23.7576 8.86757 25.0182 12.0784 25.0182C15.1919 25.0182 18.1108 23.9515 18.1108 21.0424C18.1108 18.5212 15.4838 17.5515 11.9811 17.1636C6.62973 16.5818 1.66757 15.1273 1.66757 9.21212C1.66757 3.78182 7.01892 1.55152 11.8838 1.55152C15.9703 1.55152 20.2513 2.71515 22.1973 6.78788L18.3054 8.82424Z" fill="white"/>
<path d="M55.6676 25.503C52.9432 28.2182 49.4405 29.3818 45.6459 29.3818C35.8189 29.3818 31.7324 22.5939 31.6351 15.8061C31.6351 8.92121 36.1108 1.93939 45.6459 1.93939C49.2459 1.93939 52.6513 3.29697 55.2784 6.01212L51.9703 9.21212C50.2189 7.46667 47.8838 6.69091 45.6459 6.69091C39.3216 6.69091 36.5 11.4424 36.5973 15.8061C36.5973 20.1697 39.127 24.7273 45.6459 24.7273C47.9811 24.7273 50.5108 23.7576 52.2622 22.0121L55.6676 25.503Z" fill="white"/>
<path d="M83.5919 28.8H63.8406C63.8406 19.9758 63.8406 11.1515 63.8406 2.42424H83.5919V7.27273H68.8027V13.3818H83.1054V18.0364H68.8027V23.9515H83.5919V28.8Z" fill="white"/>
<path d="M111.03 2.42424H115.992V28.8H112.878L99.0621 10.9576V28.8H94.1V2.42424H98.0892L111.03 18.8121V2.42424Z" fill="white"/>
<path d="M132.922 6.98182H124.554V2.42424C132.143 2.42424 138.565 2.42424 146.251 2.42424V6.98182H137.884V28.8H132.922V6.98182Z" fill="white"/>
<path d="M180.597 15.3212C180.597 18.3273 179.819 21.4303 178.165 23.9515L181.278 27.0545L177.776 30.5455L174.565 27.3455C172.619 28.6061 170.089 29.2849 167.073 29.2849C157.732 29.2849 153.549 22.497 153.549 15.6121C153.549 8.72727 157.83 1.84242 167.073 1.84242C176.316 1.74546 180.403 8.53333 180.597 15.3212ZM158.414 15.7091C158.511 20.0727 161.332 24.6303 167.073 24.6303C173.008 24.6303 175.927 19.5879 175.732 15.1273C175.538 10.8606 173.3 6.30303 167.073 6.30303C160.846 6.30303 158.316 11.2485 158.414 15.7091Z" fill="white"/>
</g>
<defs>
<clipPath id="clip0_671_390">
<rect width="180" height="32" fill="white" transform="translate(0.5)"/>
</clipPath>
</defs>
</svg>
