<svg xmlns="http://www.w3.org/2000/svg" width="32" height="32" viewBox="0 0 32 32">
    <defs>
        <clipPath id="wt6oi5734a">
            <path data-name="Rectangle 216" transform="translate(20 148)" d="M0 0h32v32H0z"/>
        </clipPath>
    </defs>
    <g transform="translate(-20 -148)" style="clip-path:url(#wt6oi5734a)">
        <g data-name="Group 530">
            <g data-name="Group 529">
                <path data-name="Path 4130" d="M47.314 152.686a16 16 0 1 0-22.628 22.628 16 16 0 1 0 22.628-22.628zM36 178.979A14.979 14.979 0 1 1 50.979 164 15 15 0 0 1 36 178.979z"/>
            </g>
        </g>
        <g data-name="Group 532">
            <g data-name="Group 531">
                <path data-name="Path 4131" d="M36 151.745a1.874 1.874 0 0 0-1.872 1.872v9.021a1.872 1.872 0 1 0 3.745 0v-9.021A1.874 1.874 0 0 0 36 151.745zm.851 10.894a.851.851 0 1 1-1.7 0v-9.022a.851.851 0 0 1 1.7 0z"/>
            </g>
        </g>
        <g data-name="Group 534">
            <g data-name="Group 533">
                <path data-name="Path 4132" d="M42.537 155.886a1.872 1.872 0 1 0-2.181 3.043 7.489 7.489 0 1 1-8.713 0 1.872 1.872 0 1 0-2.18-3.044 11.225 11.225 0 0 0-2.123 16.284.511.511 0 1 0 .787-.651 10.2 10.2 0 0 1 1.932-14.8.85.85 0 0 1 1.346.692.853.853 0 0 1-.356.691 8.511 8.511 0 1 0 9.9 0 .851.851 0 0 1 .5-1.543.844.844 0 0 1 .5.16A10.211 10.211 0 1 1 29.5 172.895a.511.511 0 0 0-.651.787 11.232 11.232 0 1 0 13.685-17.8z"/>
            </g>
        </g>
    </g>
</svg>
