<svg xmlns="http://www.w3.org/2000/svg" width="48" height="48" viewBox="0 0 48 48">
    <g data-name="man (1)" transform="translate(.375)">
        <path data-name="Path 4007" d="m8.325 19.493-.075.007h.076z" style="fill:#ffbeaa"/>
        <path data-name="Path 4008" d="M37.5 13.5V21a1.5 1.5 0 0 0-1.5-1.5h-.75l-.075-.007A14.207 14.207 0 0 0 35.25 18c-2.182-.727-5.767-7.087-5.992-7.477l1.492 5.227C21 15.75 20.25 9 20.25 9s-3 8.25-7.5 8.25V18a14.206 14.206 0 0 0 .075 1.493l-.075.007H12a1.5 1.5 0 0 0-1.5 1.5v-7.5C10.5 6.457 16.545.75 24 .75a13.862 13.862 0 0 1 9.548 3.735A12.382 12.382 0 0 1 37.5 13.5z" style="fill:#a65d4e"/>
        <path data-name="Path 4009" d="m27.945 37.125 8.423 3.368a3.011 3.011 0 0 1 1.882 2.79v2.467a14.155 14.155 0 0 1-6.353 1.5H16.1a14.155 14.155 0 0 1-6.352-1.5v-2.467a3.011 3.011 0 0 1 1.883-2.79l8.422-3.367a1.51 1.51 0 0 0 .922-1.132L21 36c0 1.245 1.2 2.25 3 2.25s3-1.005 3-2.25l.022-.007a1.51 1.51 0 0 0 .922 1.132z" style="fill:#019af8"/>
        <path data-name="Path 4010" d="M36 19.5a1.5 1.5 0 0 1 1.5 1.5v.75c0 2.07-1.68 4.5-3.75 4.5H33l-.022-.015a16.71 16.71 0 0 0 2.2-6.743l.075.007z" style="fill:#faa68e"/>
        <path data-name="Path 4011" d="M27 35.738a1.4 1.4 0 0 0 .022.255L27 36c0 1.245-1.2 2.25-3 2.25s-3-1.005-3-2.25l-.023-.007a1.4 1.4 0 0 0 .023-.256v-4.064a8.081 8.081 0 0 0 6 0z" style="fill:#ffcdbe"/>
        <path data-name="Path 4012" d="M14.25 26.25c-2.07 0-3.75-2.43-3.75-4.5V21a1.5 1.5 0 0 1 1.5-1.5h.75l.075-.007a16.71 16.71 0 0 0 2.2 6.743L15 26.25z" style="fill:#faa68e"/>
        <path data-name="Path 4013" d="M20.25 9s.75 6.75 10.5 6.75l-1.493-5.227c.225.39 3.81 6.75 5.993 7.477a14.208 14.208 0 0 1-.075 1.493 16.71 16.71 0 0 1-2.2 6.743A12.37 12.37 0 0 1 27 31.672a8.081 8.081 0 0 1-6 0 12.37 12.37 0 0 1-5.977-5.437 16.71 16.71 0 0 1-2.2-6.742A14.206 14.206 0 0 1 12.75 18v-.75c4.5 0 7.5-8.25 7.5-8.25z" style="fill:#ffcdbe"/>
        <path data-name="Path 4014" d="M35.25 18c-2.182-.727-5.767-7.087-5.992-7.477l1.223 4.285c1.247 1.976 3.183 4.739 4.608 5.366.032-.225.064-.454.086-.682A14.207 14.207 0 0 0 35.25 18z" style="fill:#faa68e"/>
        <path data-name="Path 4015" d="M20.25 11.25S21 18 30.75 18l-.65-2.264C20.972 15.443 20.25 9 20.25 9s-3 8.25-7.5 8.25V18a14.206 14.206 0 0 0 .075 1.493c4.458-.093 7.425-8.243 7.425-8.243z" style="fill:#faa68e"/>
        <path data-name="Path 4016" d="M23.25 36.75v-1.5a1.5 1.5 0 0 1 1.5-1.5H27v-2.077a8.081 8.081 0 0 1-6 0v4.065a1.4 1.4 0 0 1-.023.255L21 36c0 1.245 1.2 2.25 3 2.25a4.448 4.448 0 0 0 .445-.032 1.5 1.5 0 0 1-1.195-1.468z" style="fill:#faa68e"/>
        <path data-name="Path 4017" d="M36.409 44.9a3.443 3.443 0 0 1-.83.1H18.225A3.225 3.225 0 0 1 15 41.775V39.15l-3.368 1.35a3.011 3.011 0 0 0-1.882 2.783v2.467a14.155 14.155 0 0 0 6.353 1.5H31.9a14.155 14.155 0 0 0 6.353-1.5v-2.038a3.413 3.413 0 0 1-1.844 1.188z" style="fill:#556fde"/>
        <path data-name="Path 4018" d="M21.305 6.6a16.067 16.067 0 0 0 2.545 1.65H24c5.25 0 8.759-.942 10.742-2.449a13.125 13.125 0 0 0-1.194-1.316c-.086-.082-.183-.154-.272-.233C31.2 5.775 28.364 6.75 24 6.75a24.29 24.29 0 0 1-2.695-.15z" style="fill:#c38778"/>
        <path data-name="Path 4019" d="M21.305 6.6A24.29 24.29 0 0 0 24 6.75c4.364 0 7.2-.975 9.275-2.5A13.864 13.864 0 0 0 24 .75a14.077 14.077 0 0 0-5.85 1.275A8.393 8.393 0 0 0 21.305 6.6z" style="fill:#b46e5a"/>
        <path data-name="Path 4020" d="M23.85 8.25a29.74 29.74 0 0 0 13.425 3A12.349 12.349 0 0 0 34.74 5.8C32.759 7.308 29.25 8.25 24 8.25z" style="fill:#b46e5a"/>
        <path data-name="Path 4021" d="M21.305 6.6a13.231 13.231 0 0 1-6.58-2.352A13 13 0 0 0 13.258 5.8c1.962 1.493 5.426 2.429 10.592 2.45a16.067 16.067 0 0 1-2.545-1.65z" style="fill:#b46e5a"/>
        <path data-name="Path 4022" d="M10.5 18.75V21a1.5 1.5 0 0 1 1.5-1.5h.75l.075-.007A14.206 14.206 0 0 1 12.75 18v-.75H12a1.5 1.5 0 0 0-1.5 1.5z" style="fill:#784132"/>
        <path data-name="Path 4023" d="M36 18h-.75a14.208 14.208 0 0 1-.075 1.493l.075.007H36a1.5 1.5 0 0 1 1.5 1.5v-1.5A1.5 1.5 0 0 0 36 18z" style="fill:#784132"/>
        <path data-name="Path 4024" d="M20.25 26.25h7.5a4 4 0 0 1-3.75 3 4 4 0 0 1-3.75-3z" style="fill:#ff808c"/>
        <ellipse data-name="Ellipse 50" cx="2.678" cy="1.125" rx="2.678" ry="1.125" transform="translate(21.323 27)" style="fill:#f25a6b"/>
        <ellipse data-name="Ellipse 51" cx="1.125" cy="1.5" rx="1.125" ry="1.5" transform="translate(27 18.75)" style="fill:#3d221a"/>
        <ellipse data-name="Ellipse 52" cx="1.125" cy="1.5" rx="1.125" ry="1.5" transform="translate(18.75 18.75)" style="fill:#3d221a"/>
        <path data-name="Path 4025" d="m36.643 39.8-8.421-3.368a.746.746 0 0 1-.472-.7v-3.553A13.194 13.194 0 0 0 33.362 27h.388c2.534 0 4.5-2.822 4.5-5.25V13.5C38.25 6.056 31.858 0 24 0S9.75 6.056 9.75 13.5v8.25c0 2.428 1.966 5.25 4.5 5.25h.388a13.194 13.194 0 0 0 5.612 5.179v3.556a.745.745 0 0 1-.472.7l-8.42 3.365A3.732 3.732 0 0 0 9 43.281v2.469a.75.75 0 0 0 .415.675A15.036 15.036 0 0 0 16.1 48h15.8a15.036 15.036 0 0 0 6.689-1.575.75.75 0 0 0 .411-.675v-2.469a3.733 3.733 0 0 0-2.357-3.481zm.107-18.05a4 4 0 0 1-2.527 3.686 17.792 17.792 0 0 0 1.607-5.186H36a.75.75 0 0 1 .75.75zM24 1.5c7.031 0 12.75 5.383 12.75 12v5.388a2.224 2.224 0 0 0-.75-.138h-.02c.012-.25.02-.5.02-.75a.75.75 0 0 0-.513-.712c-1.436-.478-4.186-4.641-5.581-7.153a.75.75 0 0 0-1.376.571l1.219 4.268C21.773 14.555 21.024 9.15 21 8.918a.75.75 0 0 0-1.45-.174C18.759 10.9 16 16.5 12.75 16.5a.75.75 0 0 0-.75.75V18c0 .249.008.5.02.75H12a2.225 2.225 0 0 0-.75.138V13.5c0-6.616 5.719-12 12.75-12zM11.25 21.75V21a.75.75 0 0 1 .75-.75h.17a17.792 17.792 0 0 0 1.607 5.186 4 4 0 0 1-2.527-3.686zM13.5 18v-.064c3.186-.546 5.518-4.451 6.663-6.838 1.062 2.2 3.781 5.4 10.587 5.4a.75.75 0 0 0 .721-.956l-.075-.277a12.236 12.236 0 0 0 3.1 3.2C34.275 25.96 28.855 31.5 24 31.5c-4.957 0-10.5-5.775-10.5-13.5zM24 33a8.929 8.929 0 0 0 2.25-.294v3.029a2.391 2.391 0 0 0 .02.266h-.02c0 .869-.947 1.5-2.25 1.5s-2.25-.631-2.25-1.5h-.019a2.391 2.391 0 0 0 .02-.266v-3.029A8.929 8.929 0 0 0 24 33zm13.5 12.278a13.53 13.53 0 0 1-5.6 1.222H16.1a13.53 13.53 0 0 1-5.6-1.223v-2a2.238 2.238 0 0 1 1.414-2.089l8.421-3.368a2.29 2.29 0 0 0 .45-.251A3.931 3.931 0 0 0 24 39a3.931 3.931 0 0 0 3.212-1.425 2.29 2.29 0 0 0 .45.251l8.421 3.368a2.238 2.238 0 0 1 1.417 2.087z"/>
        <path data-name="Path 4026" d="M26.25 20.25a2.066 2.066 0 0 0 1.875 2.25A2.065 2.065 0 0 0 30 20.25a2.175 2.175 0 0 0-1.433-2.183A3.619 3.619 0 0 1 29.25 18c2.213 0 2.25 3.714 2.25 3.75H33c0-1.816-.784-5.25-3.75-5.25a3.989 3.989 0 0 0-3.675 1.915l1.021.52a2.575 2.575 0 0 0-.346 1.315zm1.875.75c-.132 0-.375-.285-.375-.75s.243-.75.375-.75.375.285.375.75-.243.75-.375.75z"/>
        <path data-name="Path 4027" d="M21.75 20.25a2.575 2.575 0 0 0-.349-1.315l1.021-.52A3.989 3.989 0 0 0 18.75 16.5c-2.966 0-3.75 3.434-3.75 5.25h1.5c0-.037.037-3.75 2.25-3.75a3.619 3.619 0 0 1 .683.067A2.175 2.175 0 0 0 18 20.25a2.065 2.065 0 0 0 1.875 2.25 2.066 2.066 0 0 0 1.875-2.25zm-2.25 0c0-.465.243-.75.375-.75s.375.285.375.75-.243.75-.375.75-.375-.285-.375-.75z"/>
        <path data-name="Path 4028" d="M28.478 26.432a.75.75 0 0 0-.728-.932h-7.5a.75.75 0 0 0-.727.932 4.594 4.594 0 0 0 8.955 0zM21.393 27h5.214a3.016 3.016 0 0 1-5.214 0z"/>
    </g>
</svg>
