<svg xmlns="http://www.w3.org/2000/svg" width="32" height="32" viewBox="0 0 32 32">
    <defs>
        <clipPath id="tyb8vt969a">
            <path data-name="Rectangle 216" transform="translate(20 148)" d="M0 0h32v32H0z"/>
        </clipPath>
    </defs>
    <g data-name="Manage Subscription" transform="translate(-20 -148)" style="clip-path:url(#tyb8vt969a)">
        <path data-name="Path 4084" d="M50.8 149.558h-6.373v-1.089a.469.469 0 0 0-.469-.469H27.819a.469.469 0 0 0-.469.469v1.089H21.2a.474.474 0 0 0-.469.469v12.3a.469.469 0 0 0 .469.473h6.15v3.422a.469.469 0 0 0 .469.469h1.431a1.678 1.678 0 0 0-.178.582l-.616 5.327a3.728 3.728 0 0 0-.024.451 3.887 3.887 0 0 0 1.5 2.956l1.561 1.344v2.176a.469.469 0 0 0 .469.469H33.4a.469.469 0 0 0 0-.937h-.974v-1.918a.469.469 0 0 0-.163-.355l-1.539-1.326a3.2 3.2 0 0 1-1.355-2.412 2.782 2.782 0 0 1 .018-.337l.613-5.335a.745.745 0 0 1 .741-.659.776.776 0 0 1 .559.253.759.759 0 0 1 .186.492v3.952a.469.469 0 0 0 .938 0v-12.7a.745.745 0 0 1 1.49 0v5.933a.474.474 0 1 0 .941.006v-.479c.084-.954 1.682-.931 1.682.049v.71a.469.469 0 0 0 .938 0 .747.747 0 0 1 .746-.746c.466 0 .938.2.938.746v.462a.469.469 0 0 0 .937.008.672.672 0 0 1 .024-.192.763.763 0 0 1 1.465 0l.578 2.228a9.434 9.434 0 0 1-.049 4.914l-1.31 4.667a.467.467 0 0 0-.017.127v1.922h-5.143a.469.469 0 1 0 0 .938h5.616a.469.469 0 0 0 .469-.469v-2.333l1.293-4.605a10.372 10.372 0 0 0 .054-5.4l-.133-.511h1.015a.469.469 0 0 0 .469-.469V152.4h5.907v9.462h-4.172a.469.469 0 0 0 0 .938H50.8a.469.469 0 0 0 .469-.469v-12.305a.469.469 0 0 0-.469-.469zm-29.133.942h5.683v.964h-5.683zm6.621-1.562h15.2v2.521h-15.2zm-6.621 12.92V152.4h5.683v9.462zm21.033 3.891-.2-.78a1.714 1.714 0 0 0-2.651-.931 1.879 1.879 0 0 0-2.523-.53 1.854 1.854 0 0 0-2.469-.8v-3.528h4.264a.455.455 0 0 1 .454.454v.9a.454.454 0 0 1-.454.454h-2.568a.469.469 0 0 0 0 .938h2.566a1.393 1.393 0 0 0 1.391-1.391v-.9a1.393 1.393 0 0 0-1.391-1.392h-4.332a1.682 1.682 0 0 0-3.3.469v7.038h-3.2V152.4h15.2v13.349zm1.727-14.29v-.959h5.907v.964z"/>
        <path data-name="Path 4085" d="M38.606 149.752h-5.435a.469.469 0 0 0 0 .938h5.436a.469.469 0 0 0 0-.937z"/>
        <path data-name="Path 4086" d="M33.958 153.3h-3.7a.469.469 0 0 0-.469.469v2.137a.469.469 0 0 0 .469.469h3.7a.469.469 0 0 0 .469-.469v-2.141a.469.469 0 0 0-.469-.469zm-.469 2.141h-2.764v-1.2h2.764z"/>
        <path data-name="Path 4087" d="M45.835 155.8h2.785a.469.469 0 0 0 0-.937h-2.785a.469.469 0 0 0 0 .938z"/>
        <path data-name="Path 4088" d="M48.619 157.812a.469.469 0 0 0 0-.937h-2.784a.469.469 0 0 0 0 .938z"/>
        <path data-name="Path 4089" d="M23.09 155.8h2.784a.469.469 0 0 0 0-.937H23.09a.469.469 0 0 0 0 .938z"/>
        <path data-name="Path 4090" d="M25.874 156.874H23.09a.469.469 0 0 0 0 .938h2.784a.469.469 0 0 0 0-.937z"/>
        <path data-name="Path 4091" d="M41.26 154.366h-4.973a.469.469 0 1 0 0 .938h4.973a.469.469 0 0 0 0-.937z"/>
    </g>
</svg>
