<svg xmlns="http://www.w3.org/2000/svg" xmlns:xlink="http://www.w3.org/1999/xlink" width="32" height="32" viewBox="0 0 32 32">
  <defs>
    <style>
      .cls-1 {
        clip-path: url(#clip-path);
      }
    </style>
    <clipPath id="clip-path">
      <rect id="Rectangle_216" data-name="Rectangle 216" width="32" height="32" transform="translate(20 148)"/>
    </clipPath>
  </defs>
  <g id="My_queue" data-name="My queue" class="cls-1" transform="translate(-20 -148)">
    <g id="Calendar" transform="translate(18.934 146.934)">
      <path id="Path_3967" data-name="Path 3967" d="M30.4,4.267H27.733V3.2a2.133,2.133,0,0,0-4.267,0V4.267H19.2V3.2a2.133,2.133,0,1,0-4.267,0V4.267H10.667V3.2A2.133,2.133,0,1,0,6.4,3.2V4.267H3.733A2.667,2.667,0,0,0,1.067,6.933V28.267a2.667,2.667,0,0,0,2.667,2.667H18.667a.533.533,0,0,0,0-1.067H3.733a1.6,1.6,0,0,1-1.6-1.6V11.733H32V20.8a.533.533,0,0,0,1.067,0V6.933A2.667,2.667,0,0,0,30.4,4.267ZM24.533,3.2a1.067,1.067,0,1,1,2.133,0V6.4a1.067,1.067,0,1,1-2.133,0ZM16,3.2a1.067,1.067,0,0,1,2.133,0V6.4A1.067,1.067,0,0,1,16,6.4Zm-8.533,0A1.067,1.067,0,1,1,9.6,3.2V6.4a1.067,1.067,0,0,1-2.133,0ZM32,10.667H2.133V6.933a1.6,1.6,0,0,1,1.6-1.6H6.4V6.4a2.133,2.133,0,0,0,4.267,0V5.333h4.267V6.4a2.133,2.133,0,1,0,4.267,0V5.333h4.267V6.4a2.133,2.133,0,0,0,4.267,0V5.333H30.4a1.6,1.6,0,0,1,1.6,1.6Z"/>
      <path id="Path_3968" data-name="Path 3968" d="M16,15.467A1.067,1.067,0,0,0,14.933,14.4H12.8a1.067,1.067,0,0,0-1.067,1.067v1.6A1.067,1.067,0,0,0,12.8,18.133h2.133A1.067,1.067,0,0,0,16,17.067Zm-3.2,1.6v-1.6h2.133v1.6Z"/>
      <path id="Path_3969" data-name="Path 3969" d="M9.6,15.467A1.067,1.067,0,0,0,8.533,14.4H6.4a1.067,1.067,0,0,0-1.067,1.067v1.6A1.067,1.067,0,0,0,6.4,18.133H8.533A1.067,1.067,0,0,0,9.6,17.067Zm-3.2,1.6v-1.6H8.533v1.6Z"/>
      <path id="Path_3970" data-name="Path 3970" d="M27.733,18.133A1.067,1.067,0,0,0,28.8,17.067v-1.6A1.067,1.067,0,0,0,27.733,14.4H25.6a1.067,1.067,0,0,0-1.067,1.067v1.6A1.067,1.067,0,0,0,25.6,18.133ZM25.6,15.467h2.133v1.6H25.6Z"/>
      <path id="Path_3971" data-name="Path 3971" d="M16,20.267A1.067,1.067,0,0,0,14.933,19.2H12.8a1.067,1.067,0,0,0-1.067,1.067v1.6A1.067,1.067,0,0,0,12.8,22.933h2.133A1.067,1.067,0,0,0,16,21.867Zm-3.2,1.6v-1.6h2.133v1.6Z"/>
      <path id="Path_3972" data-name="Path 3972" d="M9.6,20.267A1.067,1.067,0,0,0,8.533,19.2H6.4a1.067,1.067,0,0,0-1.067,1.067v1.6A1.067,1.067,0,0,0,6.4,22.933H8.533A1.067,1.067,0,0,0,9.6,21.867Zm-3.2,1.6v-1.6H8.533v1.6Z"/>
      <path id="Path_3973" data-name="Path 3973" d="M14.933,24H12.8a1.067,1.067,0,0,0-1.067,1.067v1.6A1.067,1.067,0,0,0,12.8,27.733h2.133A1.067,1.067,0,0,0,16,26.667v-1.6A1.067,1.067,0,0,0,14.933,24ZM12.8,26.667v-1.6h2.133v1.6Z"/>
      <path id="Path_3974" data-name="Path 3974" d="M19.2,18.133h2.133A1.067,1.067,0,0,0,22.4,17.067v-1.6A1.067,1.067,0,0,0,21.333,14.4H19.2a1.067,1.067,0,0,0-1.067,1.067v1.6A1.067,1.067,0,0,0,19.2,18.133Zm0-2.667h2.133v1.6H19.2Z"/>
      <path id="Path_3975" data-name="Path 3975" d="M18.133,21.867A1.067,1.067,0,0,0,19.2,22.933a.533.533,0,0,0,0-1.067v-1.6h2.133a.533.533,0,1,0,0-1.067H19.2a1.067,1.067,0,0,0-1.067,1.067Z"/>
      <path id="Path_3976" data-name="Path 3976" d="M8.533,24H6.4a1.067,1.067,0,0,0-1.067,1.067v1.6A1.067,1.067,0,0,0,6.4,27.733H8.533A1.067,1.067,0,0,0,9.6,26.667v-1.6A1.067,1.067,0,0,0,8.533,24ZM6.4,26.667v-1.6H8.533v1.6Z"/>
      <path id="Path_3977" data-name="Path 3977" d="M26.133,19.2a6.933,6.933,0,1,0,6.933,6.933A6.933,6.933,0,0,0,26.133,19.2Zm0,12.8A5.867,5.867,0,1,1,32,26.133,5.867,5.867,0,0,1,26.133,32Z"/>
      <path id="Path_3978" data-name="Path 3978" d="M29.215,23.9l-4.148,4.148L23.181,26.16a.533.533,0,1,0-.754.754l2.262,2.263a.533.533,0,0,0,.754,0l4.525-4.525a.533.533,0,1,0-.754-.754Z"/>
    </g>
  </g>
</svg>
