<svg xmlns="http://www.w3.org/2000/svg" width="32" height="32" viewBox="0 0 32 32">
    <defs>
        <clipPath id="dzdn6n4mfa">
            <path data-name="Rectangle 216" transform="translate(20 148)" d="M0 0h32v32H0z"/>
        </clipPath>
    </defs>
    <g data-name="Order Tracking" transform="translate(-20 -148)" style="clip-path:url(#dzdn6n4mfa)">
        <path data-name="Path 4073" d="M28.576 156.234v8.031a.469.469 0 0 0 .234.406l6.955 4.016a.469.469 0 0 0 .469 0l6.955-4.016a.469.469 0 0 0 .234-.406v-8.031a.469.469 0 0 0-.234-.406l-6.955-4.015a.469.469 0 0 0-.469 0l-6.955 4.015a.469.469 0 0 0-.234.406zm.938.812 6.018 3.474v6.949L29.514 164zM36 159.709l-6.018-3.475 2.54-1.467 6.018 3.474zm.469 7.761v-6.949l6.018-3.474V164zM36 152.76l6.018 3.474-2.54 1.466-6.018-3.473z"/>
        <path data-name="Path 4074" d="M41.315 160.612a.469.469 0 0 0-.469 0l-3.205 1.851a.469.469 0 0 0-.234.406v2.165a.469.469 0 0 0 .7.406l3.205-1.851a.469.469 0 0 0 .234-.406v-2.165a.469.469 0 0 0-.231-.406zm-.7 2.3-2.268 1.309v-1.082l2.268-1.309z"/>
        <path data-name="Path 4075" d="M36 148a12.25 12.25 0 0 0-9.885 19.485c.029.046 8.749 11.944 8.749 11.944A1.417 1.417 0 0 0 36 180a1.4 1.4 0 0 0 1.131-.577c.033-.039 8.756-11.938 8.756-11.938A12.251 12.251 0 0 0 36 148zm9.13 18.931c-.086.118-8.62 11.761-8.75 11.935a.468.468 0 0 1-.756 0c-.086-.118-8.633-11.777-8.748-11.936a11.312 11.312 0 1 1 20.442-6.68 11.23 11.23 0 0 1-2.188 6.681z"/>
        <path data-name="Path 4076" d="M36 149.875a10.39 10.39 0 0 0-6.609 2.378.47.47 0 1 0 .6.722 9.436 9.436 0 1 1-1.266 1.263.47.47 0 0 0-.725-.597 10.375 10.375 0 1 0 8-3.766z"/>
    </g>
</svg>
