<svg xmlns="http://www.w3.org/2000/svg" width="32" height="32" viewBox="0 0 32 32">
    <defs>
        <clipPath id="goexts9wda">
            <path data-name="Rectangle 216" transform="translate(20 148)" d="M0 0h32v32H0z"/>
        </clipPath>
    </defs>
    <g transform="translate(-20 -148)" style="clip-path:url(#goexts9wda)">
        <path data-name="Path 4095" d="M46.8 172.048a.469.469 0 1 0 0 .937.469.469 0 0 0-.005-.937z"/>
        <path data-name="Path 4096" d="M31.267 172.048a.469.469 0 0 0 0 .937h.005a.469.469 0 0 0 0-.937z"/>
        <path data-name="Path 4097" d="m51.512 166.834-1.5-1.072-.022-4.533a1.185 1.185 0 0 0-1.238-1.2h-3.637a.863.863 0 0 0-.156-.678.848.848 0 0 0-.682-.324H41.01a.469.469 0 0 0 0 .937h3.157l-3.24 12.084h-7.118a1.91 1.91 0 0 0-2-2 3.262 3.262 0 0 0-2.876 2h-2.065l.916-3.418a.469.469 0 0 0-.906-.243l-.94 3.507a.876.876 0 0 0 .137.767.848.848 0 0 0 .682.324h1.968a1.91 1.91 0 0 0 2 2 3.262 3.262 0 0 0 2.876-2h10.656a1.91 1.91 0 0 0 2 2 3.262 3.262 0 0 0 2.876-2h.167a1.873 1.873 0 0 0 1.723-1.349l.922-3.441a1.232 1.232 0 0 0-.436-1.362zM32.818 172.4a2.345 2.345 0 0 1-2.088 1.657 1.059 1.059 0 0 1-.87-.379 1.17 1.17 0 0 1-.145-1.035 2.345 2.345 0 0 1 2.085-1.661 1.059 1.059 0 0 1 .87.379 1.17 1.17 0 0 1 .145 1.035zm16.256-6.86h-3.036a.307.307 0 0 1-.249-.1.365.365 0 0 1-.032-.314l.4-1.5a.935.935 0 0 1 .818-.655h2.084zm-.725 6.86a2.345 2.345 0 0 1-2.088 1.657 1.059 1.059 0 0 1-.87-.379 1.17 1.17 0 0 1-.145-1.035 2.345 2.345 0 0 1 2.088-1.657 1.059 1.059 0 0 1 .87.379 1.17 1.17 0 0 1 .145 1.035zm1.771-1a.943.943 0 0 1-.781.653 1.91 1.91 0 0 0-2-2 3.262 3.262 0 0 0-2.876 2H41.9l.823-3.071h5.652a.469.469 0 1 0 0-.937h-5.4l1.9-7.079h3.885c.136 0 .3.047.3.272v.795h-2.08a1.873 1.873 0 0 0-1.723 1.349l-.4 1.5a1.287 1.287 0 0 0 .194 1.127 1.232 1.232 0 0 0 .993.465h3.357l1.566 1.126c.134.1.092.3.076.357l-.023.087h-.642a.469.469 0 0 0 0 .937h.391z"/>
        <path data-name="Path 4098" d="M31.992 167.976a7.483 7.483 0 1 0-7.483-7.483 7.491 7.491 0 0 0 7.483 7.483zm0-14.028a6.545 6.545 0 1 1-6.545 6.545 6.553 6.553 0 0 1 6.545-6.545z"/>
        <path data-name="Path 4099" d="M29.988 162.966a.467.467 0 0 0 .331-.137l1.019-1.019a1.47 1.47 0 0 0 1.971-1.971l2.521-2.522a.469.469 0 1 0-.663-.663l-2.522 2.522a1.47 1.47 0 0 0-1.971 1.971l-1.018 1.019a.469.469 0 0 0 .331.8zm2-3.006a.533.533 0 1 1-.533.533.534.534 0 0 1 .537-.533z"/>
        <path data-name="Path 4100" d="M31.992 156.453a.469.469 0 0 0 .469-.469v-.5a.469.469 0 0 0-.937 0v.5a.469.469 0 0 0 .468.469z"/>
        <path data-name="Path 4101" d="M31.992 164.533a.469.469 0 0 0-.469.469v.5a.469.469 0 1 0 .937 0V165a.469.469 0 0 0-.468-.467z"/>
        <path data-name="Path 4102" d="M36.5 160.962h.5a.469.469 0 1 0 0-.937h-.5a.469.469 0 0 0 0 .937z"/>
        <path data-name="Path 4103" d="M27.952 160.493a.469.469 0 0 0-.469-.469h-.5a.469.469 0 1 0 0 .937h.5a.469.469 0 0 0 .469-.468z"/>
        <path data-name="Path 4104" d="M25.479 166.537h-5.01a.469.469 0 0 0 0 .937h5.01a.469.469 0 0 0 0-.937z"/>
        <path data-name="Path 4105" d="M24.978 168.541h-3.006a.469.469 0 1 0 0 .937h3.006a.469.469 0 1 0 0-.937z"/>
        <path data-name="Path 4106" d="M24.477 170.545h-1a.469.469 0 0 0 0 .937h1a.469.469 0 0 0 0-.937z"/>
    </g>
</svg>
