<svg xmlns="http://www.w3.org/2000/svg" width="32" height="32" viewBox="0 0 32 32">
    <defs>
        <clipPath id="q1w6jb9fwa">
            <path data-name="Rectangle 216" transform="translate(20 148)" d="M0 0h32v32H0z"/>
        </clipPath>
    </defs>
    <path data-name="Path 4094" d="M12.647 26.743a.469.469 0 1 1 .937 0V30.8l1.557-.712a.47.47 0 0 1 .388 0l2.027.927 2.027-.927a.47.47 0 0 1 .388 0l2.029.931 2.027-.927a.47.47 0 0 1 .388 0l2.027.927 2.027-.927a.47.47 0 0 1 .388 0l1.557.712V3.467a2.531 2.531 0 0 0-2.53-2.53H12.488a3.46 3.46 0 0 1 1.1 2.53v21.152a.469.469 0 1 1-.937 0V20.7H4.118a3.466 3.466 0 0 1-3.467-3.465v-2.379a.469.469 0 1 1 .937 0v2.379a2.53 2.53 0 1 0 5.06 0V10.82h-5.06v1.912a.469.469 0 1 1-.937 0v-2.38a.469.469 0 0 1 .47-.469h5.527V7.232a.469.469 0 1 1 .937 0v10a3.459 3.459 0 0 1-1.015 2.455l-.08.078h6.157V3.467a2.531 2.531 0 0 0-5.062 0v1.641a.469.469 0 1 1-.937 0V3.467A3.469 3.469 0 0 1 10.117 0h17.765a3.466 3.466 0 0 1 3.467 3.467v28.065a.471.471 0 0 1-.663.425l-2.027-.927-2.027.925a.463.463 0 0 1-.388 0l-2.027-.927-2.025.925a.467.467 0 0 1-.39 0l-2.027-.927-2.025.925a.467.467 0 0 1-.39 0l-2.025-.927-1.99.909a.47.47 0 0 1-.7-.407v-4.783zm3.1-2.881h2.73a.469.469 0 0 1 .468.47v2.73a.467.467 0 0 1-.468.468h-2.73a.469.469 0 0 1-.469-.468v-2.73a.47.47 0 0 1 .469-.47zM18 24.8h-1.79v1.793H18zm-2.261-5.79h2.73a.467.467 0 0 1 .468.468v2.73a.469.469 0 0 1-.468.469h-2.73a.47.47 0 0 1-.469-.469v-2.73a.469.469 0 0 1 .472-.468zm2.261.937h-1.79v1.793H18zm-2.261-5.792h2.73a.469.469 0 0 1 .468.469v2.73a.467.467 0 0 1-.468.468h-2.73a.469.469 0 0 1-.469-.468v-2.73a.47.47 0 0 1 .472-.468zm2.261.938h-1.79v1.793H18zm2.266 11.922a.469.469 0 0 1 0-.937h6.842a.469.469 0 1 1 0 .937zm0-1.7a.47.47 0 0 1 0-.939h8.359a.469.469 0 0 1 0 .939zm0-3.155a.469.469 0 0 1 0-.937h6.842a.469.469 0 1 1 0 .937zm0-1.7a.469.469 0 0 1 0-.937h8.359a.469.469 0 1 1 0 .937zm0-3.155a.469.469 0 0 1 0-.937h6.842a.469.469 0 1 1 0 .937zm0-1.7a.469.469 0 0 1 0-.937h8.359a.469.469 0 1 1 0 .937zm1.268-13.1a.469.469 0 0 1 .937 0v.53a2.612 2.612 0 0 1 1.32.574.468.468 0 1 1-.625.7 1.547 1.547 0 0 0-.694-.324V6.47c.151.058.31.115.477.175A2.169 2.169 0 0 1 24.349 8a2.271 2.271 0 0 1 .074 1.157 2.532 2.532 0 0 1-.48 1.065 2.4 2.4 0 0 1-1.469.9v.629a.469.469 0 0 1-.937 0v-.592a3.222 3.222 0 0 1-.631-.085 3.346 3.346 0 0 1-1.058-.494.468.468 0 1 1 .514-.783 2.5 2.5 0 0 0 .769.37 2.269 2.269 0 0 0 .406.057V7.1a5.009 5.009 0 0 1-1.067-.609 1.607 1.607 0 0 1-.542-.808 2.007 2.007 0 0 1-.039-.969A2.169 2.169 0 0 1 20.3 3.8a1.927 1.927 0 0 1 .974-.668 2.535 2.535 0 0 1 .259-.066zm.937 4.962v2.691a1.475 1.475 0 0 0 .73-.512 1.579 1.579 0 0 0 .3-.664 1.352 1.352 0 0 0-.041-.684 1.371 1.371 0 0 0-.989-.831zm-.937-1.4V4.036a1.017 1.017 0 0 0-.5.345 1.19 1.19 0 0 0-.23.512 1.079 1.079 0 0 0 .018.523.658.658 0 0 0 .218.337 3.241 3.241 0 0 0 .497.31z" style="clip-path:url(#q1w6jb9fwa)"/>
</svg>
