<svg xmlns="http://www.w3.org/2000/svg" width="32" height="32" viewBox="0 0 32 32">
    <defs>
        <clipPath id="fbkrceolca">
            <path data-name="Rectangle 216" transform="translate(20 148)" d="M0 0h32v32H0z"/>
        </clipPath>
    </defs>
    <g data-name="history" transform="translate(-20 -148)" style="clip-path:url(#fbkrceolca)">
        <path data-name="Path 4077" d="M37.042 149.042a14.976 14.976 0 0 0-14.95 14.484h-1.619a.473.473 0 0 0-.4.72l3.414 5.6a.473.473 0 0 0 .808 0l3.414-5.6a.473.473 0 0 0-.4-.72H25.84a11.212 11.212 0 1 1 22.008 3.469.473.473 0 0 0 .912.253A12.159 12.159 0 1 0 24.884 164a.473.473 0 0 0 .473.473h1.1l-2.57 4.216-2.57-4.216h1.241a.474.474 0 0 0 .473-.473 14.011 14.011 0 1 1 14.484 14v-1.85a12.175 12.175 0 0 0 10.424-6.758.473.473 0 0 0-.848-.421 11.162 11.162 0 0 1-10.048 6.24.473.473 0 0 0-.473.473v2.8a.473.473 0 0 0 .473.473 14.958 14.958 0 1 0-.001-29.915zm0 0"/>
        <path data-name="Path 4078" d="M41.651 172.931a2.2 2.2 0 0 0 2.19-2.193v-7.737a.473.473 0 1 0-.947 0v7.741a1.246 1.246 0 0 1-2.492 0 .473.473 0 0 0-.473-.473h-8.853v-4.139a.473.473 0 0 0-.947 0v4.135h-1.245a.473.473 0 0 0-.473.473 2.2 2.2 0 0 0 2.189 2.193h11.05zm-11.051-.947a1.248 1.248 0 0 1-1.152-.772h10.061a2.181 2.181 0 0 0 .338.772zm0 0"/>
        <path data-name="Path 4079" d="M43.369 161.242a.473.473 0 0 0 .473-.473v-4.406a.473.473 0 0 0-.473-.473H30.6a.473.473 0 0 0-.473.473v7.546a.473.473 0 1 0 .947 0v-7.073H42.9v3.934a.473.473 0 0 0 .473.473zm0 0"/>
        <path data-name="Path 4080" d="M41.109 160.327h-8.247a.473.473 0 0 0 0 .947h8.247a.473.473 0 0 0 0-.947zm0 0"/>
        <path data-name="Path 4081" d="M41.109 162.664h-8.247a.473.473 0 0 0 0 .947h8.247a.473.473 0 0 0 0-.947zm0 0"/>
        <path data-name="Path 4082" d="M41.109 165.001h-8.247a.473.473 0 0 0 0 .947h8.247a.473.473 0 0 0 0-.947zm0 0"/>
        <path data-name="Path 4083" d="M41.109 167.342h-8.247a.473.473 0 1 0 0 .947h8.247a.473.473 0 1 0 0-.947zm0 0"/>
    </g>
</svg>
