<svg xmlns="http://www.w3.org/2000/svg" xmlns:xlink="http://www.w3.org/1999/xlink" width="20" height="20" viewBox="0 0 20 20">
  <defs>
    <clipPath id="clip-path">
      <rect id="Rectangle_63" data-name="Rectangle 63" width="20" height="20" fill="#000"/>
    </clipPath>
  </defs>
  <g id="Ico_Email" clip-path="url(#clip-path)">
    <path id="envelope" d="M18.125,2.5H1.875A1.875,1.875,0,0,0,0,4.375v11.25A1.875,1.875,0,0,0,1.875,17.5h16.25A1.875,1.875,0,0,0,20,15.625V4.375A1.875,1.875,0,0,0,18.125,2.5ZM1.875,3.75h16.25a.627.627,0,0,1,.625.625V5.992c-.855.723-2.078,1.719-5.883,4.738-.66.523-1.961,1.785-2.867,1.77-.906.016-2.211-1.246-2.867-1.77-3.8-3.02-5.027-4.016-5.883-4.738V4.375A.627.627,0,0,1,1.875,3.75Zm16.25,12.5H1.875a.627.627,0,0,1-.625-.625V7.617c.891.73,2.3,1.859,5.105,4.09.8.641,2.215,2.051,3.645,2.043,1.422.012,2.824-1.387,3.645-2.043,2.809-2.23,4.215-3.359,5.105-4.09v8.008A.627.627,0,0,1,18.125,16.25Z" fill="#000"/>
  </g>
</svg>
