<svg xmlns="http://www.w3.org/2000/svg" width="48" height="48" viewBox="0 0 48 48">
    <defs>
        <clipPath id="07wckbvena">
            <path data-name="Rectangle 218" transform="translate(800 464)" d="M0 0h48v48H0z"/>
        </clipPath>
    </defs>
    <g data-name="14-Shy" transform="translate(-800 -464)" style="clip-path:url(#07wckbvena)">
        <path data-name="Path 3979" d="M36.368 40.493a3.011 3.011 0 0 1 1.883 2.79v2.467a14.155 14.155 0 0 1-6.353 1.5H16.1a14.155 14.155 0 0 1-6.352-1.5v-2.467a3.011 3.011 0 0 1 1.883-2.79l8.422-3.367a1.51 1.51 0 0 0 .922-1.132L21 36c0 1.245 1.2 2.25 3 2.25s3-1.005 3-2.25l.022-.007a1.51 1.51 0 0 0 .922 1.132z" style="fill:#f8b4c9" transform="translate(800 464)"/>
        <path data-name="Path 3980" d="M33.015 26.25a16.382 16.382 0 0 0 2.235-6.75H36a1.5 1.5 0 0 1 1.5 1.5v.75c0 2.07-1.68 4.5-3.75 4.5z" style="fill:#ffa8ad" transform="translate(800 464)"/>
        <path data-name="Path 3981" d="M12 19.5h.75l.075-.007a16.71 16.71 0 0 0 2.2 6.743L15 26.25h-.75c-2.07 0-3.75-2.43-3.75-4.5V21a1.5 1.5 0 0 1 1.5-1.5z" style="fill:#ffa8ad" transform="translate(800 464)"/>
        <path data-name="Path 3982" d="M20.977 35.993a1.4 1.4 0 0 0 .023-.256v-4.064a8.175 8.175 0 0 0 3 .577 8.358 8.358 0 0 0 3-.57v4.058a1.4 1.4 0 0 0 .022.255L27 36c0 1.245-1.2 2.25-3 2.25s-3-1.005-3-2.25z" style="fill:#ffe4e0" transform="translate(800 464)"/>
        <path data-name="Path 3983" d="M30.577 15.7c1.163 2.04 2.6 3.8 4.673 3.8a16.382 16.382 0 0 1-2.235 6.75A12.47 12.47 0 0 1 27 31.68a8.358 8.358 0 0 1-3 .57 8.175 8.175 0 0 1-3-.577 12.37 12.37 0 0 1-5.977-5.438 16.71 16.71 0 0 1-2.2-6.742A14.206 14.206 0 0 1 12.75 18C16.5 15.75 17.25 7.5 21 7.5c.135 0 .263.008.382.015C24 7.7 24 9.75 24 9.75s1.125-1.245 3 0c1.215.81 2.2 3.578 3.577 5.95z" style="fill:#ffe4e0" transform="translate(800 464)"/>
        <path data-name="Path 3984" d="M41.25 27.75c0-3-.923-2.2-1.5-4.5a8.784 8.784 0 0 1-.277-2.13 8.952 8.952 0 0 1 .12-1.425 15.433 15.433 0 0 0 .157-2.272V16.5a14.948 14.948 0 0 0-1.5-6c-1.882-3.765-4.3-9.3-13.155-9.72-.352-.023-.72-.03-1.095-.03-9.75 0-12.293 5.835-14.25 9.75a14.948 14.948 0 0 0-1.5 6v.923a15.433 15.433 0 0 0 .158 2.272 8.951 8.951 0 0 1 .12 1.425 8.784 8.784 0 0 1-.278 2.13c-.577 2.3-1.5 1.5-1.5 4.5s2.25 3 2.25 6-2.25 3-2.25 6c0 2.25.75 1.5.75 4.5h2.25v-.967a3.011 3.011 0 0 1 1.883-2.79l8.422-3.367a1.51 1.51 0 0 0 .922-1.132 1.4 1.4 0 0 0 .023-.257v-4.064a12.37 12.37 0 0 1-5.977-5.437L15 26.25h-.75c-2.07 0-3.75-2.43-3.75-4.5V21a1.5 1.5 0 0 1 1.5-1.5h.75l.075-.007A14.206 14.206 0 0 1 12.75 18C16.5 15.75 17.25 7.5 21 7.5c.135 0 .263.008.382.015C24 7.7 24 9.75 24 9.75s1.125-1.245 3 0c1.215.81 2.2 3.578 3.577 5.955 1.163 2.04 2.6 3.8 4.673 3.8H36A1.5 1.5 0 0 1 37.5 21v.75c0 2.07-1.68 4.5-3.75 4.5h-.735A12.47 12.47 0 0 1 27 31.68v4.057a1.4 1.4 0 0 0 .022.255 1.51 1.51 0 0 0 .922 1.132l8.423 3.368a3.011 3.011 0 0 1 1.882 2.79v.967H40.5c0-3 .75-2.25.75-4.5 0-3-2.25-3-2.25-6s2.25-2.999 2.25-5.999zM24 5.25a10.813 10.813 0 0 0-2.505.293C15.975 6.832 12.75 12 12.75 12s.7-9 11.25-9c.33 0 .653.008.96.023C34.59 3.555 35.25 12 35.25 12S31.035 5.25 24 5.25z" style="fill:#fee5a9" transform="translate(800 464)"/>
        <path data-name="Path 3985" d="M35.25 12S31.035 5.25 24 5.25a10.813 10.813 0 0 0-2.505.293C15.975 6.832 12.75 12 12.75 12s.7-9 11.25-9c.33 0 .653.008.96.023C34.59 3.555 35.25 12 35.25 12z" style="fill:#d68b9e" transform="translate(800 464)"/>
        <path data-name="Path 3986" d="M36.75 33.75c0-3 2.25-3 2.25-6s-.923-2.2-1.5-4.5a11.237 11.237 0 0 1-.117-.537C36.975 24.5 35.5 26.25 33.75 26.25h-.735A12.47 12.47 0 0 1 27 31.68v4.057a1.4 1.4 0 0 0 .022.255 1.51 1.51 0 0 0 .922 1.132l8.423 3.368a3.011 3.011 0 0 1 1.882 2.79v.967c0-3 .75-2.25.75-4.5C39 36.75 36.75 36.75 36.75 33.75z" style="fill:#e9c791" transform="translate(800 464)"/>
        <path data-name="Path 3987" d="m11.632 40.493 8.423-3.368a1.51 1.51 0 0 0 .922-1.132 1.4 1.4 0 0 0 .023-.256v-4.064a12.37 12.37 0 0 1-5.977-5.437L15 26.25h-.75c-1.754 0-3.225-1.745-3.633-3.537-.034.173-.075.351-.117.537-.578 2.3-1.5 1.5-1.5 4.5s2.25 3 2.25 6-2.25 3-2.25 6c0 2.25.75 1.5.75 4.5v-.967a3.011 3.011 0 0 1 1.883-2.79z" style="fill:#e9c791" transform="translate(800 464)"/>
        <path data-name="Path 3988" d="M36 19.5h-.75a1.5 1.5 0 0 1 1.5 1.5v.75c0 2.07-1.68 4.5-3.75 4.5h.75c2.07 0 3.75-2.43 3.75-4.5V21a1.5 1.5 0 0 0-1.5-1.5z" style="fill:#ffdecf" transform="translate(800 464)"/>
        <path data-name="Path 3989" d="M11.25 21.75V21a1.5 1.5 0 0 1 1.5-1.5H12a1.5 1.5 0 0 0-1.5 1.5v.75c0 2.07 1.68 4.5 3.75 4.5H15c-2.07 0-3.75-2.43-3.75-4.5z" style="fill:#ffdecf" transform="translate(800 464)"/>
        <path data-name="Path 3990" d="M23.25 36.75v-1.5a1.5 1.5 0 0 1 1.5-1.5H27v-2.077a8.081 8.081 0 0 1-6 0v4.065a1.4 1.4 0 0 1-.023.255L21 36c0 1.245 1.2 2.25 3 2.25a4.448 4.448 0 0 0 .445-.032 1.5 1.5 0 0 1-1.195-1.468z" style="fill:#ffa8ad" transform="translate(800 464)"/>
        <path data-name="Path 3991" d="M36.409 44.9a3.443 3.443 0 0 1-.83.1H18.225A3.225 3.225 0 0 1 15 41.775V39.15l-3.368 1.35a3.011 3.011 0 0 0-1.882 2.783v2.467a14.155 14.155 0 0 0 6.353 1.5H31.9a14.155 14.155 0 0 0 6.353-1.5v-2.038a3.413 3.413 0 0 1-1.844 1.188z" style="fill:#d68b9e" transform="translate(800 464)"/>
        <path data-name="Path 3992" d="M29.7 4.155a12.545 12.545 0 0 0-4.74-1.132C24.653 3.008 24.33 3 24 3a13.134 13.134 0 0 0-5.7 1.154 2.192 2.192 0 0 0 .225 2.527A12.083 12.083 0 0 1 21.5 5.542 10.813 10.813 0 0 1 24 5.25a11.467 11.467 0 0 1 5.47 1.435 2.191 2.191 0 0 0 .23-2.53z" style="fill:#f8b4c9" transform="translate(800 464)"/>
        <path data-name="Path 3993" d="M21 9c.135 0 .263.007.382.015C24 9.195 24 12 24 12s1.125-1.245 3 0c1.215.81 2.2 5.077 3.577 7.455 1.006 1.766 2.216 3.312 3.869 3.7a16.091 16.091 0 0 0 .8-3.653c-2.077 0-3.51-1.755-4.672-3.8C29.2 13.328 28.215 10.56 27 9.75c-1.875-1.245-3 0-3 0s0-2.05-2.618-2.235A5.673 5.673 0 0 0 21 7.5c-3.75 0-4.5 8.25-8.25 10.5a14.206 14.206 0 0 0 .075 1.493c.021.217.052.435.082.652C16.52 17.739 17.3 9 21 9z" style="fill:#ffc6c2" transform="translate(800 464)"/>
        <path data-name="Path 3994" d="M24 3c.33 0 .653.008.96.023a11.342 11.342 0 0 1 6.59 2.27 11.141 11.141 0 0 0 2.189-1.4A13.611 13.611 0 0 0 25.095.78C24.743.757 24.375.75 24 .75a17.4 17.4 0 0 0-5.92.928 6.468 6.468 0 0 0 .81 2.222A13.618 13.618 0 0 1 24 3z" style="fill:#ffedc2" transform="translate(800 464)"/>
        <path data-name="Path 3995" d="M16.453 5.294a11.149 11.149 0 0 1-2.191-1.4 12.529 12.529 0 0 0-1.473 1.513 7.833 7.833 0 0 0 2.161 1.374 9.381 9.381 0 0 1 1.5-1.487z" style="fill:#ffedc2" transform="translate(800 464)"/>
        <path data-name="Path 3996" d="M21.305 6.6a17.989 17.989 0 0 1-1.961-.322 13.756 13.756 0 0 0-2.193 1.244 21.014 21.014 0 0 0 2.39.455A2.506 2.506 0 0 1 21 7.5c.135 0 .263.007.383.015a2.993 2.993 0 0 1 1.91.725c.184 0 .367.007.555.008A16.067 16.067 0 0 1 21.305 6.6z" style="fill:#ffedc2" transform="translate(800 464)"/>
        <path data-name="Path 3997" d="M35.115 11.169c.782.052 1.575.081 2.385.081h1.092c-.105-.249-.217-.5-.342-.75a25.671 25.671 0 0 0-3.039-5.091 7.834 7.834 0 0 1-2.161 1.372 10.667 10.667 0 0 1 2.065 4.388z" style="fill:#ffedc2" transform="translate(800 464)"/>
        <path data-name="Path 3998" d="M28.663 6.28A11.261 11.261 0 0 0 24 5.25a10.813 10.813 0 0 0-2.5.293c-.361.084-.71.187-1.05.3.269.26.554.514.861.76A24.29 24.29 0 0 0 24 6.75a21.185 21.185 0 0 0 4.663-.47z" style="fill:#ffedc2" transform="translate(800 464)"/>
        <path data-name="Path 3999" d="M33.05 6.781a7.835 7.835 0 0 0 2.161-1.372 12.525 12.525 0 0 0-1.472-1.514 11.141 11.141 0 0 1-2.189 1.4 9.369 9.369 0 0 1 1.5 1.488z" style="fill:#fff6e0" transform="translate(800 464)"/>
        <path data-name="Path 4000" d="M30.846 7.526A28.2 28.2 0 0 1 24 8.25h-.15a28.192 28.192 0 0 0 10.782 2.888 17.6 17.6 0 0 0-3.786-3.612z" style="fill:#ffedc2" transform="translate(800 464)"/>
        <path data-name="Path 4001" d="M30.846 7.526a13.718 13.718 0 0 0-2.183-1.246A21.184 21.184 0 0 1 24 6.75a24.287 24.287 0 0 1-2.694-.15 16.067 16.067 0 0 0 2.544 1.65H24a28.2 28.2 0 0 0 6.846-.724z" style="fill:#fff6e0" transform="translate(800 464)"/>
        <path data-name="Path 4002" d="M825 466.273q-.483-.024-1-.023c-8.89 0-11.735 6.34-12 9.691a.75.75 0 0 0 1.384.456c.031-.049 3.139-4.924 8.28-6.125A10.066 10.066 0 0 1 824 470c6.525 0 10.575 6.334 10.614 6.4a.75.75 0 0 0 1.386-.459 11.193 11.193 0 0 0-1.65-4.63c-1.342-2.136-4.05-4.745-9.35-5.038zm-1 2.227a11.558 11.558 0 0 0-2.677.313 14.708 14.708 0 0 0-6.74 3.844c1.242-2.298 3.867-4.907 9.417-4.907.317 0 .628.007.919.021 4.918.272 7.322 2.711 8.491 4.875A13.681 13.681 0 0 0 824 468.5z"/>
        <path data-name="Path 4003" d="M839.75 497.75a3.679 3.679 0 0 1 .975-2.55 5.136 5.136 0 0 0 1.275-3.45 4.562 4.562 0 0 0-.835-3.182 3.808 3.808 0 0 1-.687-1.5 8.012 8.012 0 0 1-.256-1.95 8.134 8.134 0 0 1 .112-1.315 16.051 16.051 0 0 0 .166-2.38v-.923a15.612 15.612 0 0 0-1.575-6.335l-.211-.415c-1.838-3.702-4.614-9.293-13.571-9.718A17.672 17.672 0 0 0 824 464c-9.872 0-12.785 5.866-14.713 9.75l-.208.418a15.612 15.612 0 0 0-1.579 6.332v.923a16.1 16.1 0 0 0 .167 2.39 8.073 8.073 0 0 1 .111 1.308 8.025 8.025 0 0 1-.255 1.95 3.816 3.816 0 0 1-.688 1.5 4.551 4.551 0 0 0-.835 3.179 5.136 5.136 0 0 0 1.275 3.45 3.825 3.825 0 0 1 0 5.1 5.136 5.136 0 0 0-1.275 3.45 4.822 4.822 0 0 0 .39 2.15 5.225 5.225 0 0 1 .36 2.349.75.75 0 0 0 .75.751h1.5v.75a.75.75 0 0 0 .413.671A14.992 14.992 0 0 0 816.1 512h15.8a14.992 14.992 0 0 0 6.689-1.579.75.75 0 0 0 .411-.671V509h1.5a.75.75 0 0 0 .75-.75 5.224 5.224 0 0 1 .36-2.349 4.822 4.822 0 0 0 .39-2.151 5.136 5.136 0 0 0-1.275-3.45 3.679 3.679 0 0 1-.975-2.55zm-2.25 11.528a13.5 13.5 0 0 1-5.6 1.222h-15.8a13.5 13.5 0 0 1-5.6-1.222v-2a2.25 2.25 0 0 1 1.411-2.093l8.423-3.367a2.24 2.24 0 0 0 .45-.253A3.931 3.931 0 0 0 824 503a3.931 3.931 0 0 0 3.215-1.431 2.24 2.24 0 0 0 .45.253l8.42 3.367a2.25 2.25 0 0 1 1.415 2.094zm-25.335-25.028a17.408 17.408 0 0 0 1.584 5.179 4.01 4.01 0 0 1-2.5-3.679V485a.75.75 0 0 1 .75-.75zm1.406-.837a13.241 13.241 0 0 1-.065-1.013 6.96 6.96 0 0 0 1.355-1.336l.589.786c1.164-.872 3.19-2.1 4.05-2.1a2.6 2.6 0 0 1 1.725.539l1.05-1.069a3.983 3.983 0 0 0-2.775-.97 8.66 8.66 0 0 0-3.8 1.6c.574-.946 1.075-1.994 1.566-3.027 1.121-2.352 2.178-4.576 3.734-4.576.118 0 .229.007.331.014 1.789.123 1.913 1.268 1.919 1.486a.75.75 0 0 0 .472.689.761.761 0 0 0 .825-.175c.123-.125.8-.712 2.037.111.655.436 1.383 1.9 2.087 3.307.1.2.207.41.311.615a2.715 2.715 0 0 0-.481-.044 3.983 3.983 0 0 0-2.78.97l1.05 1.069a2.6 2.6 0 0 1 1.73-.538 3.926 3.926 0 0 1 1.545.525c.975 1.674 2.325 3.494 4.367 3.893a15.637 15.637 0 0 1-2.043 5.7 11.688 11.688 0 0 1-5.638 5.111 7.409 7.409 0 0 1-5.464-.008 11.616 11.616 0 0 1-5.6-5.115 15.9 15.9 0 0 1-2.1-6.443zm22.34.837H836a.75.75 0 0 1 .75.75v.75a4.046 4.046 0 0 1-2.434 3.665 17.073 17.073 0 0 0 1.6-5.165zm-14.161 15.488V496.7a8.807 8.807 0 0 0 2.25.3 8.919 8.919 0 0 0 2.25-.3v3.037a2.1 2.1 0 0 0 .023.262h-.023c0 .869-.947 1.5-2.25 1.5s-2.25-.631-2.25-1.5h-.023a2.108 2.108 0 0 0 .023-.261zm18.47 5.6a5.662 5.662 0 0 0-.45 2.163H839v-.217a3.743 3.743 0 0 0-2.354-3.484l-8.423-3.368a.762.762 0 0 1-.463-.569.637.637 0 0 1-.01-.121v-3.57a13.248 13.248 0 0 0 5.675-5.172h.325c2.534 0 4.5-2.822 4.5-5.25V485a2.25 2.25 0 0 0-2.25-2.25h-.75a3.366 3.366 0 0 1-2.458-1.222l.658-.877a22.256 22.256 0 0 0-2.319-1.5c-.4-.7-.765-1.431-1.119-2.143-.864-1.733-1.609-3.229-2.6-3.887a3.276 3.276 0 0 0-2.937-.521 3.361 3.361 0 0 0-3.045-1.832 5.79 5.79 0 0 0-.43-.018c-2.506 0-3.818 2.759-5.086 5.428-1 2.1-2.025 4.264-3.55 5.18A.75.75 0 0 0 812 482c0 .256.007.506.019.75H812a2.25 2.25 0 0 0-2.25 2.25v.75c0 2.428 1.966 5.25 4.5 5.25h.375a13.175 13.175 0 0 0 5.625 5.161v3.577a.65.65 0 0 1-.011.122.762.762 0 0 1-.463.569l-8.425 3.371a3.745 3.745 0 0 0-2.351 3.483v.217h-.767a5.662 5.662 0 0 0-.45-2.163 3.44 3.44 0 0 1-.283-1.587 3.679 3.679 0 0 1 .975-2.55 5.305 5.305 0 0 0 0-6.9 3.679 3.679 0 0 1-.975-2.55 3.172 3.172 0 0 1 .56-2.318 5.281 5.281 0 0 0 .918-2 9.551 9.551 0 0 0 .3-2.311 9.75 9.75 0 0 0-.128-1.535 14.607 14.607 0 0 1-.15-2.164v-.922a14.213 14.213 0 0 1 1.425-5.665l.209-.421c1.866-3.761 4.424-8.914 13.366-8.914.359 0 .71.007 1.06.029 8.087.384 10.429 5.1 12.31 8.887l.208.419A14.332 14.332 0 0 1 839 480.5v.922a14.551 14.551 0 0 1-.15 2.155 9.82 9.82 0 0 0-.129 1.542 9.538 9.538 0 0 0 .3 2.312 5.273 5.273 0 0 0 .917 2 3.172 3.172 0 0 1 .56 2.318 3.679 3.679 0 0 1-.975 2.55 5.305 5.305 0 0 0 0 6.9 3.679 3.679 0 0 1 .976 2.55 3.44 3.44 0 0 1-.28 1.587z"/>
        <path data-name="Path 4004" d="M829.25 483.5c1.037 0 1.5.463 1.5 1.5h1.5a2.756 2.756 0 0 0-3-3 3 3 0 0 0-3 3h1.5a1.5 1.5 0 0 1 1.5-1.5z"/>
        <path data-name="Path 4005" d="M818.75 483.5a1.5 1.5 0 0 1 1.5 1.5h1.5a3 3 0 0 0-3-3 2.756 2.756 0 0 0-3 3h1.5c0-1.037.463-1.5 1.5-1.5z"/>
        <path data-name="Rectangle 220" d="m827.079 487.664.75-1.5 1.342.67-.75 1.5z"/>
        <path data-name="Rectangle 221" d="m829.329 487.665.75-1.5 1.342.67-.75 1.5z"/>
        <path data-name="Rectangle 222" d="m816.579 487.664.75-1.5 1.342.67-.75 1.5z"/>
        <path data-name="Rectangle 223" d="m818.829 487.665.75-1.5 1.342.67-.75 1.5z"/>
        <path data-name="Path 4006" d="M821.75 491a2.25 2.25 0 1 0 4.5 0v-.75h-1.5v.75a.734.734 0 0 1-.229.535.724.724 0 0 1-.521.215.75.75 0 0 1-.75-.75v-.75h-1.5z"/>
    </g>
</svg>
