<svg xmlns="http://www.w3.org/2000/svg" width="24" height="24" viewBox="0 0 24 24">
    <defs>
        <clipPath id="b9bcof830a">
            <path data-name="Rectangle 216" transform="translate(1686.574 142)" d="M0 0h24v24H0z"/>
        </clipPath>
    </defs>
    <g transform="translate(-1686.574 -142)" style="clip-path:url(#b9bcof830a)">
        <g data-name="Group 259">
            <path data-name="Path 3970" d="M18 24H6a6 6 0 0 1-6-6V6a6 6 0 0 1 6-6h12a6 6 0 0 1 6 6v12a6 6 0 0 1-6 6" transform="translate(1686.574 142)" style="fill-rule:evenodd;fill:#2d2d2d"/>
            <path data-name="Path 3971" d="M11.25 6.75H18a3.375 3.375 0 0 0 .345-6.733C18.23.011 18.117 0 18 0H6a6 6 0 0 0-6 6v12A11.25 11.25 0 0 1 11.25 6.75" transform="translate(1686.574 142)" style="fill:#464646;fill-rule:evenodd"/>
            <path data-name="Path 3972" d="M14.5 10.25a6 6 0 1 0 6 6v-12a6 6 0 0 1-6 6" transform="translate(1690.074 143.75)" style="fill:#141414;fill-rule:evenodd"/>
        </g>
        <path data-name="Path 3973" d="M12.9 3.316a2.922 2.922 0 0 1-.749 1.916 2.675 2.675 0 0 1-1.862 1.05.264.264 0 0 1-.27-.264 3 3 0 0 1 .795-1.937 3.062 3.062 0 0 1 .968-.726 3.16 3.16 0 0 1 .837-.283.246.246 0 0 1 .283.243zm2.642 10.4a7.434 7.434 0 0 1-.736 1.324 6.729 6.729 0 0 1-.948 1.146 1.841 1.841 0 0 1-1.219.537 3.057 3.057 0 0 1-1.126-.269 3.23 3.23 0 0 0-1.212-.268 3.34 3.34 0 0 0-1.247.268 3.357 3.357 0 0 1-1.077.283 1.733 1.733 0 0 1-1.247-.551A7.048 7.048 0 0 1 5.74 15a8.205 8.205 0 0 1-1.049-2.083 7.63 7.63 0 0 1-.441-2.487 4.535 4.535 0 0 1 .6-2.373A3.5 3.5 0 0 1 6.093 6.8a3.355 3.355 0 0 1 1.687-.48 3.967 3.967 0 0 1 1.3.3 4.2 4.2 0 0 0 1.035.3 6.178 6.178 0 0 0 1.147-.358 3.794 3.794 0 0 1 1.559-.277A3.588 3.588 0 0 1 14.8 7a.725.725 0 0 1 .021 1.1 2.794 2.794 0 0 0-.933 2.182 2.89 2.89 0 0 0 .949 2.178 3.2 3.2 0 0 0 .429.344.745.745 0 0 1 .274.909z" transform="translate(1688.324 143.264)" style="fill:#fff"/>
    </g>
</svg>
