<svg xmlns="http://www.w3.org/2000/svg" xmlns:xlink="http://www.w3.org/1999/xlink" width="24" height="24" viewBox="0 0 24 24">
  <defs>
    <clipPath id="clip-path">
      <rect id="Rectangle_105" data-name="Rectangle 105" width="24" height="24" transform="translate(1321 4185)"/>
    </clipPath>
  </defs>
  <g id="Ico_Thumbs_Down" transform="translate(-1321 -4185)" clip-path="url(#clip-path)">
    <path id="thumbs-down" d="M23.281,10.609a4.382,4.382,0,0,0-.451-3.253,3.892,3.892,0,0,0-.854-3.146C22.065,1.683,20.519,0,17.741,0c-.158,0-1.664,0-1.922,0C12.215,0,9.184,1.875,7.5,1.875H6.992A1.494,1.494,0,0,0,6,1.5H1.5A1.5,1.5,0,0,0,0,3V15a1.5,1.5,0,0,0,1.5,1.5H6A1.5,1.5,0,0,0,7.5,15v-.585c.04.012.077.026.112.04,1.013.545,2.7,3.229,3.805,4.333a3.989,3.989,0,0,1,.775,2.06c.267,1.374.789,3.151,2.2,3.151,2.794,0,3.886-1.625,3.886-4.363a6.817,6.817,0,0,0-.97-3.273h3.288A3.464,3.464,0,0,0,24,12.962a3.762,3.762,0,0,0-.719-2.354ZM6,15H1.5V3H6Zm14.591-.136h-5.25c0,1.909,1.432,2.8,1.432,4.773,0,1.2,0,2.864-2.386,2.864-.955-.955-.477-3.341-1.909-4.773-1.341-1.341-3.341-4.773-4.773-4.773H7.5V3.41h.2c1.627,0,4.773-1.909,8.114-1.909.163,0,1.754,0,1.909,0,1.793.017,3.071.864,2.682,3.327a2.241,2.241,0,0,1,.7,2.906c1.012.516,1.012,2.766.263,3.312A1.771,1.771,0,0,1,22.5,12.955,1.972,1.972,0,0,1,20.591,14.864ZM4.875,12.75A1.125,1.125,0,1,1,3.75,11.625,1.125,1.125,0,0,1,4.875,12.75Z" transform="translate(1321 4185)"/>
  </g>
</svg>
