<svg width="20" height="20" viewBox="0 0 20 20" fill="none" xmlns="http://www.w3.org/2000/svg">
<g clip-path="url(#clip0_1_2)">
<path d="M0.731002 8.25L3.957 4.987C4.03444 4.9089 4.12658 4.84692 4.2281 4.80461C4.32962 4.76231 4.43852 4.74053 4.5485 4.74053C4.65848 4.74053 4.76738 4.76231 4.8689 4.80461C4.97042 4.84692 5.06256 4.9089 5.14 4.987C5.29529 5.14309 5.38247 5.35432 5.38247 5.5745C5.38247 5.79468 5.29529 6.00591 5.14 6.162L2.173 9.15H19.167C19.2767 9.15 19.3854 9.17168 19.4867 9.21379C19.588 9.2559 19.68 9.31762 19.7574 9.39539C19.8348 9.47317 19.8961 9.56547 19.9377 9.667C19.9794 9.76852 20.0005 9.87727 20 9.987C20 10.2079 19.9122 10.4198 19.756 10.576C19.5998 10.7322 19.3879 10.82 19.167 10.82H2.123L5.14 13.829C5.2181 13.9064 5.28009 13.9986 5.32239 14.1001C5.36469 14.2016 5.38647 14.3105 5.38647 14.4205C5.38647 14.5305 5.36469 14.6394 5.32239 14.7409C5.28009 14.8424 5.2181 14.9346 5.14 15.012C5.06256 15.0901 4.97042 15.1521 4.8689 15.1944C4.76738 15.2367 4.65848 15.2585 4.5485 15.2585C4.43852 15.2585 4.32962 15.2367 4.2281 15.1944C4.12658 15.1521 4.03444 15.0901 3.957 15.012L0.731002 11.779C0.264156 11.3104 0.00202942 10.6759 0.00202942 10.0145C0.00202942 9.35306 0.264156 8.71857 0.731002 8.25V8.25Z" fill="black"/>
</g>
<defs>
<clipPath id="clip0_1_2">
<rect width="20" height="20" fill="white"/>
</clipPath>
</defs>
</svg>
