<svg xmlns="http://www.w3.org/2000/svg" xmlns:xlink="http://www.w3.org/1999/xlink" width="32" height="32" viewBox="0 0 32 32">
  <defs>
    <clipPath id="clip-path">
      <rect id="Rectangle_236" data-name="Rectangle 236" width="32" height="32" transform="translate(376 563)"/>
    </clipPath>
  </defs>
  <g id="Setup_Queue" transform="translate(-376 -563)" clip-path="url(#clip-path)">
    <g id="setup" transform="translate(376 563)">
      <g id="Group_262" data-name="Group 262">
        <path id="Path_4058" data-name="Path 4058" d="M4.041,16.505v2.02a.469.469,0,0,0,.469.469H27.491a.469.469,0,0,0,.469-.469v-2.02a.469.469,0,0,0-.469-.469H4.509a.469.469,0,0,0-.469.469Zm.938.469H27.022v1.083H4.978Z"/>
        <path id="Path_4059" data-name="Path 4059" d="M30.269.631H1.731A1.733,1.733,0,0,0,0,2.363V23.2a1.733,1.733,0,0,0,1.731,1.731h9.622L10,28.411H8.424a.469.469,0,0,0-.469.469V30.9a.469.469,0,0,0,.469.469H23.576a.469.469,0,0,0,.469-.469V28.879a.469.469,0,0,0-.469-.469H22l-1.356-3.482h4.289a.469.469,0,0,0,0-.937H1.731A.8.8,0,0,1,.937,23.2V2.362a.8.8,0,0,1,.794-.794H30.269a.8.8,0,0,1,.794.794V23.2a.8.8,0,0,1-.794.794H27.123a.469.469,0,0,0,0,.938h3.146A1.733,1.733,0,0,0,32,23.2V2.362A1.733,1.733,0,0,0,30.269.631ZM21,28.411h-7.11a.469.469,0,0,0,0,.938h9.221v1.083H8.892V29.348H11.7a.469.469,0,0,0,0-.937H11l1.356-3.482h7.28Z"/>
        <path id="Path_4060" data-name="Path 4060" d="M4.5,2.652H2.994a.975.975,0,0,0-.974.974V20.041a.975.975,0,0,0,.974.974H29.006a.975.975,0,0,0,.974-.974V3.626a.975.975,0,0,0-.974-.974H6.688a.469.469,0,0,0,0,.938H29.006a.036.036,0,0,1,.036.036V20.041a.036.036,0,0,1-.036.036H2.994a.036.036,0,0,1-.036-.036V3.626a.036.036,0,0,1,.036-.036H4.5a.469.469,0,0,0,0-.937Z"/>
        <path id="Path_4061" data-name="Path 4061" d="M10.76,11.535A1.786,1.786,0,1,0,8.974,9.75,1.788,1.788,0,0,0,10.76,11.535Zm0-2.634a.848.848,0,1,1-.848.848A.849.849,0,0,1,10.76,8.9Z"/>
        <path id="Path_4062" data-name="Path 4062" d="M6.042,8.635a.469.469,0,0,0-.36.456v1.317a.469.469,0,0,0,.36.456l1.23.293.027.064L6.636,12.3a.469.469,0,0,0,.068.577l.931.931a.469.469,0,0,0,.577.068l1.077-.663.064.026.293,1.23a.469.469,0,0,0,.456.36h1.317a.469.469,0,0,0,.456-.36l.293-1.23.064-.026,1.077.663a.469.469,0,0,0,.577-.068l.931-.931a.469.469,0,0,0,.068-.577l-.663-1.077.026-.064,1.23-.293a.469.469,0,0,0,.36-.456V9.091a.469.469,0,0,0-.36-.456l-1.23-.293-.026-.064L14.884,7.2a.469.469,0,0,0-.068-.577l-.931-.931a.469.469,0,0,0-.577-.068l-1.077.663-.064-.027-.293-1.23a.469.469,0,0,0-.456-.36H10.1a.469.469,0,0,0-.456.36l-.293,1.23-.064.027L8.212,5.626a.469.469,0,0,0-.577.068L6.7,6.625a.469.469,0,0,0-.068.577L7.3,8.279l-.027.064ZM8.23,8l-.6-.977.407-.408.977.6a.469.469,0,0,0,.46.018,2.809,2.809,0,0,1,.421-.175.469.469,0,0,0,.312-.338l.266-1.115h.576l.266,1.115a.469.469,0,0,0,.312.338,2.806,2.806,0,0,1,.421.175.469.469,0,0,0,.46-.018l.977-.6.408.408L13.29,8a.469.469,0,0,0-.018.46,2.812,2.812,0,0,1,.175.421.469.469,0,0,0,.338.312l1.115.265v.576l-1.115.266a.469.469,0,0,0-.338.312,2.809,2.809,0,0,1-.175.421.469.469,0,0,0,.018.46l.6.977-.408.408-.977-.6a.469.469,0,0,0-.46-.018,2.829,2.829,0,0,1-.421.175.469.469,0,0,0-.312.338l-.266,1.115h-.576l-.266-1.115a.469.469,0,0,0-.312-.338,2.817,2.817,0,0,1-.421-.175.469.469,0,0,0-.46.018l-.977.6-.407-.408.6-.977a.469.469,0,0,0,.018-.46,2.805,2.805,0,0,1-.175-.421.469.469,0,0,0-.338-.312L6.62,10.038V9.461L7.735,9.2a.469.469,0,0,0,.338-.312,2.8,2.8,0,0,1,.175-.421A.468.468,0,0,0,8.23,8Z"/>
        <path id="Path_4063" data-name="Path 4063" d="M17.618,10.522H19.1v.07A1.008,1.008,0,0,0,20.107,11.6h1.077a1.008,1.008,0,0,0,1.007-1.007v-.07h4.376a.469.469,0,0,0,0-.938H22.191v-.07a1.008,1.008,0,0,0-1.007-1.007H20.107A1.008,1.008,0,0,0,19.1,9.515v.07H17.618a.469.469,0,0,0,0,.938Zm2.42-1.007a.07.07,0,0,1,.07-.07h1.077a.07.07,0,0,1,.07.07v1.077a.07.07,0,0,1-.07.07H20.107a.07.07,0,0,1-.07-.07Z"/>
        <path id="Path_4064" data-name="Path 4064" d="M17.618,13.751h5.049v.07a1.008,1.008,0,0,0,1.007,1.007h1.077a1.008,1.008,0,0,0,1.007-1.007v-.07h.81a.469.469,0,1,0,0-.937h-.81v-.07a1.008,1.008,0,0,0-1.007-1.007H23.674a1.008,1.008,0,0,0-1.007,1.007v.07H17.618a.469.469,0,0,0,0,.938ZM23.6,12.743a.07.07,0,0,1,.07-.07h1.077a.07.07,0,0,1,.07.07V13.82a.07.07,0,0,1-.07.07H23.674a.07.07,0,0,1-.07-.07Z"/>
        <path id="Path_4065" data-name="Path 4065" d="M23.4,4.672H22.328a1.008,1.008,0,0,0-1.007,1.007v.07h-3.7a.469.469,0,0,0,0,.938h3.7v.07a1.008,1.008,0,0,0,1.007,1.007H23.4a1.008,1.008,0,0,0,1.007-1.007v-.07h2.156a.469.469,0,0,0,0-.937H24.412v-.07A1.008,1.008,0,0,0,23.4,4.672Zm.07,2.084a.07.07,0,0,1-.07.07H22.328a.07.07,0,0,1-.07-.07V5.679a.07.07,0,0,1,.07-.07H23.4a.07.07,0,0,1,.07.07Z"/>
      </g>
    </g>
  </g>
</svg>
